<?xml version="1.0" encoding="UTF-8" standalone="no"?>
<!DOCTYPE svg PUBLIC "-//W3C//DTD SVG 1.1//EN" "http://www.w3.org/Graphics/SVG/1.1/DTD/svg11.dtd">
<svg xmlns="http://www.w3.org/2000/svg" version="1.1" viewBox="0.00 0.00 869.00 869.00">
<g stroke-width="2.00" fill="none" stroke-linecap="butt">
<path stroke="#08a6b7" vector-effect="non-scaling-stroke" d="
  M 661.48 179.13
  Q 656.55 207.54 632.20 220.19
  Q 622.15 225.41 609.74 225.21"
/>
<path stroke="#01dbf4" vector-effect="non-scaling-stroke" d="
  M 609.74 225.21
  Q 635.70 219.01 647.13 198.06
  C 653.05 187.19 655.26 173.15 651.90 161.37
  C 646.42 142.16 630.03 130.71 611.19 127.51
  Q 605.57 126.56 591.26 126.55
  Q 427.13 126.48 263.00 126.79
  C 252.40 126.81 241.40 126.09 230.86 127.26
  Q 228.13 127.57 225.44 127.02"
/>
<path stroke="#0882ac" vector-effect="non-scaling-stroke" d="
  M 609.74 225.21
  Q 600.34 225.96 589.22 225.15"
/>
<path stroke="#01dbf4" vector-effect="non-scaling-stroke" d="
  M 271.45 174.31
  Q 258.57 172.00 249.87 179.61
  C 237.16 190.72 238.14 209.39 249.07 221.18
  Q 256.34 229.03 265.99 229.77
  C 280.89 230.92 293.29 232.05 302.96 243.29
  Q 314.68 256.92 315.62 275.00
  Q 316.30 288.01 315.06 301.68"
/>
<path stroke="#086598" vector-effect="non-scaling-stroke" d="
  M 661.75 184.02
  Q 660.38 194.10 656.14 202.34
  Q 644.19 225.57 619.92 230.36
  Q 613.91 231.55 600.01 231.47
  Q 510.25 230.95 420.50 231.12
  C 388.72 231.18 364.07 238.94 354.26 271.78
  Q 354.02 272.59 353.49 272.81"
/>
<path stroke="#1693d9" vector-effect="non-scaling-stroke" d="
  M 649.79 259.38
  Q 638.92 270.42 624.86 276.06"
/>
<path stroke="#1693d9" vector-effect="non-scaling-stroke" d="
  M 418.33 282.35
  Q 416.40 282.11 416.07 284.03"
/>
<path stroke="#019ad4" vector-effect="non-scaling-stroke" d="
  M 406.32 515.65
  Q 403.67 531.15 406.86 547.40"
/>
<path stroke="#086598" vector-effect="non-scaling-stroke" d="
  M 406.86 547.40
  Q 406.65 547.04 406.31 546.91
  A 0.37 0.37 0.0 0 0 405.81 547.31
  C 407.69 561.56 414.11 572.81 425.00 581.86
  Q 428.02 584.37 430.95 587.18"
/>
<path stroke="#0882ac" vector-effect="non-scaling-stroke" d="
  M 451.01 587.21
  C 428.89 582.89 412.41 569.55 406.86 547.40"
/>
<path stroke="#01dbf4" vector-effect="non-scaling-stroke" d="
  M 464.73 587.13
  Q 464.20 586.85 464.44 586.36
  A 0.64 0.63 2.3 0 1 464.79 586.04
  Q 477.98 581.43 487.75 572.00
  Q 502.86 557.40 502.89 534.75
  Q 503.01 447.16 503.15 359.57
  Q 503.17 348.82 504.54 343.05
  C 508.18 327.72 517.30 316.54 531.08 308.78
  Q 534.15 307.06 537.10 305.04"
/>
</g>
<path fill="#01ffff" d="
  M 661.48 179.13
  Q 656.55 207.54 632.20 220.19
  Q 622.15 225.41 609.74 225.21
  Q 635.70 219.01 647.13 198.06
  C 653.05 187.19 655.26 173.15 651.90 161.37
  C 646.42 142.16 630.03 130.71 611.19 127.51
  Q 605.57 126.56 591.26 126.55
  Q 427.13 126.48 263.00 126.79
  C 252.40 126.81 241.40 126.09 230.86 127.26
  Q 228.13 127.57 225.44 127.02
  C 232.45 123.75 238.54 122.26 246.76 122.26
  Q 425.04 122.32 603.34 122.24
  Q 615.97 122.24 622.04 123.67
  Q 636.99 127.21 647.38 138.31
  Q 663.37 155.38 661.48 179.13
  Z"
/>
<path fill="#00b6e8" d="
  M 609.74 225.21
  Q 600.34 225.96 589.22 225.15
  C 606.38 218.95 615.77 200.07 602.94 184.45
  C 596.20 176.26 588.85 173.80 578.43 173.80
  Q 429.84 173.80 281.25 173.77
  Q 276.10 173.77 271.45 174.31
  Q 258.57 172.00 249.87 179.61
  C 237.16 190.72 238.14 209.39 249.07 221.18
  Q 256.34 229.03 265.99 229.77
  C 280.89 230.92 293.29 232.05 302.96 243.29
  Q 314.68 256.92 315.62 275.00
  Q 316.30 288.01 315.06 301.68
  Q 302.19 284.27 282.84 279.56
  C 268.51 276.07 252.80 280.04 238.18 277.51
  C 217.85 273.98 202.09 258.01 197.28 238.17
  Q 195.87 232.34 195.81 221.69
  Q 195.69 197.87 195.78 174.04
  C 195.80 169.57 196.62 164.38 197.84 160.07
  Q 204.33 137.08 225.44 127.02
  Q 228.13 127.57 230.86 127.26
  C 241.40 126.09 252.40 126.81 263.00 126.79
  Q 427.13 126.48 591.26 126.55
  Q 605.57 126.56 611.19 127.51
  C 630.03 130.71 646.42 142.16 651.90 161.37
  C 655.26 173.15 653.05 187.19 647.13 198.06
  Q 635.70 219.01 609.74 225.21
  Z"
/>
<path fill="#01ffff" d="
  M 271.45 174.31
  Q 265.51 175.78 264.03 176.54
  C 252.49 182.51 245.23 196.69 250.47 209.31
  C 252.19 213.46 258.92 220.52 263.04 222.78
  C 267.35 225.14 271.12 226.11 276.54 226.49
  C 299.28 228.09 317.53 244.22 322.81 266.25
  Q 324.03 271.34 324.01 279.35
  Q 323.97 302.92 324.15 326.47
  Q 324.16 326.92 323.78 326.68
  Q 323.39 326.44 323.34 326.02
  Q 321.72 311.99 315.06 301.68
  Q 316.30 288.01 315.62 275.00
  Q 314.68 256.92 302.96 243.29
  C 293.29 232.05 280.89 230.92 265.99 229.77
  Q 256.34 229.03 249.07 221.18
  C 238.14 209.39 237.16 190.72 249.87 179.61
  Q 258.57 172.00 271.45 174.31
  Z"
/>
<path fill="#0f4d6f" d="
  M 661.48 179.13
  L 661.75 184.02
  Q 660.38 194.10 656.14 202.34
  Q 644.19 225.57 619.92 230.36
  Q 613.91 231.55 600.01 231.47
  Q 510.25 230.95 420.50 231.12
  C 388.72 231.18 364.07 238.94 354.26 271.78
  Q 354.02 272.59 353.49 272.81
  C 353.65 270.72 353.67 268.56 354.27 266.57
  Q 357.82 254.79 365.17 245.11
  Q 370.07 238.66 376.58 234.71
  Q 386.35 228.79 397.88 227.21
  Q 398.33 227.14 407.18 226.64
  Q 411.14 226.42 416.49 225.76
  C 421.90 225.09 428.14 226.67 433.14 226.68
  Q 506.20 226.78 579.25 226.69
  Q 582.08 226.69 589.22 225.15
  Q 600.34 225.96 609.74 225.21
  Q 622.15 225.41 632.20 220.19
  Q 656.55 207.54 661.48 179.13
  Z"
/>
<path fill="#017dc0" d="
  M 661.75 184.02
  Q 661.81 201.85 661.71 219.65
  Q 661.64 232.06 660.13 238.21
  Q 657.26 249.91 649.79 259.38
  Q 638.92 270.42 624.86 276.06
  Q 617.05 278.28 614.50 278.28
  Q 523.37 278.29 432.25 278.27
  Q 425.20 278.27 418.33 282.35
  Q 416.40 282.11 416.07 284.03
  Q 409.35 289.26 406.69 297.52
  Q 405.30 301.84 405.29 310.41
  Q 405.23 407.07 405.26 503.76
  Q 405.26 506.61 405.66 509.71
  Q 406.06 512.92 406.32 515.65
  Q 403.67 531.15 406.86 547.40
  Q 406.65 547.04 406.31 546.91
  A 0.37 0.37 0.0 0 0 405.81 547.31
  C 407.69 561.56 414.11 572.81 425.00 581.86
  Q 428.02 584.37 430.95 587.18
  Q 414.67 587.23 399.00 587.23
  Q 395.56 587.24 388.74 585.16
  Q 364.18 577.68 356.45 553.26
  Q 354.72 547.79 353.62 537.13
  Q 352.80 529.22 352.79 511.75
  Q 352.71 394.00 352.70 276.25
  Q 352.70 275.44 353.49 272.81
  Q 354.02 272.59 354.26 271.78
  C 364.07 238.94 388.72 231.18 420.50 231.12
  Q 510.25 230.95 600.01 231.47
  Q 613.91 231.55 619.92 230.36
  Q 644.19 225.57 656.14 202.34
  Q 660.38 194.10 661.75 184.02
  Z"
/>
<path fill="#2ba9f1" d="
  M 649.79 259.38
  Q 639.96 271.58 624.86 276.06
  Q 638.92 270.42 649.79 259.38
  Z"
/>
<path fill="#2ba9f1" d="
  M 418.33 282.35
  L 416.07 284.03
  Q 416.40 282.11 418.33 282.35
  Z"
/>
<path fill="#01ffff" d="
  M 464.73 587.13
  Q 464.20 586.85 464.44 586.36
  A 0.64 0.63 2.3 0 1 464.79 586.04
  Q 477.98 581.43 487.75 572.00
  Q 502.86 557.40 502.89 534.75
  Q 503.01 447.16 503.15 359.57
  Q 503.17 348.82 504.54 343.05
  C 508.18 327.72 517.30 316.54 531.08 308.78
  Q 534.15 307.06 537.10 305.04
  L 556.27 304.89
  A 0.38 0.38 0.0 0 1 556.60 305.46
  Q 556.37 305.84 555.86 305.90
  C 533.90 308.35 515.71 324.51 511.00 346.10
  Q 509.79 351.62 509.78 366.00
  Q 509.73 448.89 509.77 531.78
  Q 509.77 542.68 508.47 548.11
  C 505.43 560.81 495.66 573.97 484.24 580.54
  Q 475.28 585.71 464.73 587.13
  Z"
/>
<path fill="#00b6e8" d="
  M 537.10 305.04
  Q 534.15 307.06 531.08 308.78
  C 517.30 316.54 508.18 327.72 504.54 343.05
  Q 503.17 348.82 503.15 359.57
  Q 503.01 447.16 502.89 534.75
  Q 502.86 557.40 487.75 572.00
  Q 477.98 581.43 464.79 586.04
  A 0.64 0.63 2.3 0 0 464.44 586.36
  Q 464.20 586.85 464.73 587.13
  L 451.01 587.21
  C 428.89 582.89 412.41 569.55 406.86 547.40
  Q 403.67 531.15 406.32 515.65
  Q 412.55 532.61 429.23 535.18
  Q 431.67 535.55 434.30 535.01
  C 439.40 533.96 443.68 532.76 447.59 529.10
  Q 453.42 523.64 455.87 516.35
  Q 457.21 512.35 457.21 504.98
  Q 457.20 430.65 457.21 356.31
  Q 457.21 349.83 458.39 345.29
  C 463.07 327.29 475.99 312.65 493.82 307.24
  C 497.11 306.24 500.92 305.91 504.59 305.35
  Q 506.84 305.01 508.94 305.00
  Q 522.95 304.94 537.10 305.04
  Z"
/>
<path fill="#0f4d6f" d="
  M 406.86 547.40
  C 412.41 569.55 428.89 582.89 451.01 587.21
  L 430.95 587.18
  Q 428.02 584.37 425.00 581.86
  C 414.11 572.81 407.69 561.56 405.81 547.31
  A 0.37 0.37 0.0 0 1 406.31 546.91
  Q 406.65 547.04 406.86 547.40
  Z"
/>
<path fill="#2ba9f1" d="
  M 525.22 700.63
  C 527.51 697.68 526.62 694.08 523.56 691.98
  C 519.68 689.31 513.70 688.48 506.74 687.06
  Q 502.30 686.15 496.15 682.82
  C 486.33 677.52 482.88 665.78 486.71 655.68
  Q 488.87 649.98 494.55 645.69
  C 507.63 635.82 528.81 638.07 542.90 644.00
  A 0.85 0.84 11.6 0 1 543.42 644.78
  L 543.43 661.28
  A 1.11 1.11 0.0 0 1 541.62 662.14
  C 533.37 655.41 517.52 649.58 507.96 656.12
  C 502.14 660.10 505.88 666.36 511.50 667.74
  C 526.36 671.39 547.40 673.82 546.32 694.77
  Q 546.07 699.61 544.25 703.80
  C 540.85 711.62 532.10 716.80 523.99 718.34
  Q 503.96 722.15 485.14 713.62
  A 0.71 0.69 12.8 0 1 484.73 712.99
  L 484.73 695.49
  A 1.10 1.10 0.0 0 1 486.54 694.65
  Q 498.47 704.69 513.99 704.76
  C 517.83 704.78 522.82 703.73 525.22 700.63
  Z"
/>
<path fill="#2ba9f1" d="
  M 166.58 655.50
  L 144.72 655.50
  A 0.49 0.49 0.0 0 1 144.23 655.01
  L 144.23 640.74
  A 0.49 0.49 0.0 0 1 144.72 640.25
  L 209.31 640.25
  A 0.49 0.49 0.0 0 1 209.80 640.74
  L 209.82 655.00
  A 0.49 0.49 0.0 0 1 209.33 655.49
  L 187.51 655.50
  A 0.49 0.49 0.0 0 0 187.02 655.99
  L 187.01 717.68
  A 0.49 0.49 0.0 0 1 186.52 718.17
  L 167.56 718.18
  A 0.49 0.49 0.0 0 1 167.07 717.69
  L 167.07 655.99
  A 0.49 0.49 0.0 0 0 166.58 655.50
  Z"
/>
<path fill="#2ba9f1" d="
  M 245.25 654.68
  L 245.25 703.63
  A 0.43 0.43 0.0 0 0 245.68 704.06
  L 255.88 704.08
  A 0.43 0.43 0.0 0 1 256.31 704.51
  L 256.31 717.75
  A 0.43 0.43 0.0 0 1 255.88 718.18
  L 214.68 718.17
  A 0.43 0.43 0.0 0 1 214.25 717.74
  L 214.27 704.49
  A 0.43 0.43 0.0 0 1 214.70 704.06
  L 225.01 704.07
  A 0.43 0.43 0.0 0 0 225.44 703.64
  L 225.43 654.68
  A 0.43 0.43 0.0 0 0 225.00 654.25
  L 214.68 654.25
  A 0.43 0.43 0.0 0 1 214.25 653.82
  L 214.26 640.68
  A 0.43 0.43 0.0 0 1 214.69 640.25
  L 255.87 640.25
  A 0.43 0.43 0.0 0 1 256.30 640.68
  L 256.33 653.82
  A 0.43 0.43 0.0 0 1 255.90 654.25
  L 245.68 654.25
  A 0.43 0.43 0.0 0 0 245.25 654.68
  Z"
/>
<path fill="#2ba9f1" d="
  M 303.43 655.98
  L 303.42 717.70
  A 0.48 0.48 0.0 0 1 302.94 718.18
  L 284.21 718.18
  A 0.48 0.48 0.0 0 1 283.73 717.70
  L 283.73 655.98
  A 0.48 0.48 0.0 0 0 283.25 655.50
  L 261.29 655.50
  A 0.48 0.48 0.0 0 1 260.81 655.02
  L 260.83 640.73
  A 0.48 0.48 0.0 0 1 261.31 640.25
  L 325.79 640.25
  A 0.48 0.48 0.0 0 1 326.27 640.73
  L 326.26 655.02
  A 0.48 0.48 0.0 0 1 325.78 655.50
  L 303.91 655.50
  A 0.48 0.48 0.0 0 0 303.43 655.98
  Z"
/>
<path fill="#2ba9f1" d="
  M 349.98 702.59
  L 345.27 717.89
  A 0.39 0.39 0.0 0 1 344.90 718.17
  L 326.29 718.18
  A 0.39 0.39 0.0 0 1 325.92 717.66
  L 351.99 640.52
  A 0.39 0.39 0.0 0 1 352.36 640.25
  L 372.92 640.25
  A 0.39 0.39 0.0 0 1 373.29 640.52
  L 399.35 717.66
  A 0.39 0.39 0.0 0 1 398.98 718.17
  L 379.56 718.18
  A 0.39 0.39 0.0 0 1 379.19 717.90
  L 374.49 702.59
  A 0.39 0.39 0.0 0 0 374.12 702.31
  L 350.35 702.31
  A 0.39 0.39 0.0 0 0 349.98 702.59
  Z
  M 354.61 687.33
  A 0.33 0.33 0.0 0 0 354.93 687.75
  L 369.53 687.75
  A 0.33 0.33 0.0 0 0 369.85 687.33
  L 362.55 663.71
  A 0.33 0.33 0.0 0 0 361.91 663.71
  L 354.61 687.33
  Z"
/>
<path fill="#2ba9f1" d="
  M 455.48 683.35
  L 455.48 640.58
  A 0.33 0.33 0.0 0 1 455.81 640.25
  L 472.94 640.25
  A 0.33 0.33 0.0 0 1 473.27 640.58
  L 473.27 717.85
  A 0.33 0.33 0.0 0 1 472.94 718.18
  L 454.81 718.18
  A 0.33 0.33 0.0 0 1 454.53 718.01
  L 425.37 665.28
  A 0.33 0.33 0.0 0 0 424.75 665.44
  L 424.75 717.85
  A 0.33 0.33 0.0 0 1 424.42 718.18
  L 407.31 718.17
  A 0.33 0.33 0.0 0 1 406.98 717.84
  L 406.98 640.58
  A 0.33 0.33 0.0 0 1 407.31 640.25
  L 430.57 640.25
  A 0.33 0.33 0.0 0 1 430.85 640.42
  L 454.86 683.51
  A 0.33 0.33 0.0 0 0 455.48 683.35
  Z"
/>
<path fill="#2ba9f1" d="
  M 609.48 702.82
  L 640.88 702.82
  A 0.42 0.42 0.0 0 1 641.30 703.24
  L 641.32 717.76
  A 0.42 0.42 0.0 0 1 640.90 718.18
  L 589.87 718.18
  A 0.42 0.42 0.0 0 1 589.45 717.76
  L 589.43 640.67
  A 0.42 0.42 0.0 0 1 589.85 640.25
  L 608.64 640.26
  A 0.42 0.42 0.0 0 1 609.06 640.68
  L 609.06 702.40
  A 0.42 0.42 0.0 0 0 609.48 702.82
  Z"
/>
<path fill="#2ba9f1" d="
  M 673.52 687.15
  L 670.08 691.91
  A 0.34 0.34 0.0 0 0 670.02 692.11
  L 670.02 717.84
  A 0.34 0.34 0.0 0 1 669.68 718.18
  L 650.57 718.18
  A 0.34 0.34 0.0 0 1 650.23 717.84
  L 650.23 640.58
  A 0.34 0.34 0.0 0 1 650.57 640.24
  L 669.68 640.27
  A 0.34 0.34 0.0 0 1 670.02 640.61
  L 670.02 672.96
  A 0.34 0.34 0.0 0 0 670.64 673.15
  L 694.21 640.39
  A 0.34 0.34 0.0 0 1 694.48 640.25
  L 717.01 640.25
  A 0.34 0.34 0.0 0 1 717.28 640.80
  L 689.86 676.48
  A 0.34 0.34 0.0 0 0 689.85 676.88
  L 718.11 717.65
  A 0.34 0.34 0.0 0 1 717.83 718.18
  L 695.04 718.18
  A 0.34 0.34 0.0 0 1 694.76 718.03
  L 674.08 687.16
  A 0.34 0.34 0.0 0 0 673.52 687.15
  Z"
/>
<rect fill="#2ba9f1" x="-9.33" y="-10.53" transform="translate(564.91,707.65) rotate(-0.1)" width="18.66" height="21.06" rx="0.56"/>
</svg>
