<?xml version="1.0" encoding="UTF-8" standalone="no"?>
<!DOCTYPE svg PUBLIC "-//W3C//DTD SVG 1.1//EN" "http://www.w3.org/Graphics/SVG/1.1/DTD/svg11.dtd">
<svg xmlns="http://www.w3.org/2000/svg" version="1.1" viewBox="0.00 0.00 663.00 662.00">
<g stroke-width="2.00" fill="none" stroke-linecap="butt">
<path stroke="#f7b39d" vector-effect="non-scaling-stroke" d="
  M 315.51 212.71
  L 379.28 212.68
  Q 379.90 212.68 379.68 212.10
  C 374.48 198.25 368.60 184.53 363.74 170.58
  Q 360.97 162.65 353.25 159.04
  Q 343.08 154.28 314.10 141.20"
/>
<path stroke="#f4ab9d" vector-effect="non-scaling-stroke" d="
  M 314.10 141.20
  Q 307.21 137.88 300.00 140.32
  C 292.07 143.01 290.60 147.51 286.48 155.96
  Q 279.23 170.85 272.02 185.75
  C 269.40 191.16 268.02 195.15 269.75 200.51
  Q 270.86 203.95 274.12 212.26
  Q 274.30 212.74 274.81 212.74
  L 315.51 212.71"
/>
<path stroke="#eb5f3b" vector-effect="non-scaling-stroke" d="
  M 314.10 141.20
  L 312.48 142.72
  A 1.09 1.06 -27.7 0 0 312.16 143.70
  Q 313.68 152.05 311.17 159.15"
/>
<path stroke="#f4ab9d" vector-effect="non-scaling-stroke" d="
  M 311.17 159.15
  C 299.73 158.25 291.89 170.66 300.46 179.50
  Q 306.25 185.48 315.46 181.70"
/>
<path stroke="#eb5f3b" vector-effect="non-scaling-stroke" d="
  M 315.46 181.70
  Q 315.94 182.26 316.54 182.31
  Q 317.00 182.35 317.01 181.89
  Q 317.02 181.48 317.27 181.27
  Q 317.65 180.98 317.57 181.45
  Q 317.25 183.49 317.01 185.54
  C 316.72 187.94 317.47 190.69 316.94 193.40
  Q 315.33 201.75 316.79 210.22
  Q 316.85 210.57 316.50 210.61
  L 315.53 210.70
  A 0.47 0.47 0.0 0 0 315.39 211.59
  Q 316.50 212.09 317.76 211.83
  Q 317.88 211.81 317.88 211.87
  L 317.88 212.14
  Q 317.88 212.20 317.82 212.19
  Q 315.74 211.77 315.51 212.71"
/>
<path stroke="#f7b39d" vector-effect="non-scaling-stroke" d="
  M 315.46 181.70
  C 325.59 175.18 322.94 161.32 311.17 159.15"
/>
<path stroke="#f7b39d" vector-effect="non-scaling-stroke" d="
  M 206.16 163.00
  Q 211.51 166.70 213.25 170.04
  Q 221.44 185.76 229.45 201.62
  Q 232.63 207.92 235.27 209.96
  Q 239.95 213.56 246.66 212.52
  Q 247.24 212.43 246.97 211.91
  Q 235.30 188.67 223.36 165.45
  Q 222.39 163.56 218.57 159.26"
/>
<path stroke="#f4ab9d" vector-effect="non-scaling-stroke" d="
  M 218.57 159.26
  Q 207.61 148.57 192.50 148.54
  Q 179.39 148.50 166.28 148.51
  Q 163.24 148.51 161.83 149.19
  C 156.51 151.76 159.22 159.24 164.75 159.24
  Q 177.25 159.25 189.75 159.26
  Q 199.54 159.27 206.16 163.00"
/>
<path stroke="#eb5f3b" vector-effect="non-scaling-stroke" d="
  M 218.57 159.26
  Q 218.31 159.90 218.38 160.74
  Q 218.41 161.15 218.00 161.18
  Q 213.87 161.44 210.07 163.08
  Q 209.63 163.27 209.16 163.24
  L 206.16 163.00"
/>
<path stroke="#a9b0b4" vector-effect="non-scaling-stroke" d="
  M 318.04 274.14
  Q 362.20 268.10 406.39 262.06
  C 412.38 261.24 417.32 259.67 419.25 254.01
  Q 424.70 238.03 430.00 222.01
  A 0.39 0.38 9.6 0 0 429.63 221.50
  L 316.20 221.51"
/>
<path stroke="#a4a9ac" vector-effect="non-scaling-stroke" d="
  M 316.20 221.51
  L 226.69 221.50
  A 0.52 0.52 0.0 0 0 226.20 222.19
  Q 228.99 230.40 231.75 238.39
  Q 235.80 250.11 236.26 254.86
  C 237.44 267.22 232.18 276.86 223.83 286.00
  Q 222.88 287.04 224.27 286.85
  L 318.04 274.14"
/>
<path stroke="#4e5a61" vector-effect="non-scaling-stroke" d="
  M 316.20 221.51
  L 319.79 222.54
  A 0.16 0.16 0.0 0 1 319.75 222.86
  L 319.29 222.86
  Q 318.67 222.86 318.75 223.46
  Q 319.26 227.58 318.86 231.68
  Q 318.34 236.94 318.42 239.39
  Q 318.97 255.04 318.98 271.83
  A 1.02 1.02 0.0 0 1 317.74 272.83
  Q 316.64 272.57 315.90 272.93
  A 0.25 0.25 0.0 0 0 316.04 273.41
  Q 318.66 273.11 318.04 274.14"
/>
<path stroke="#a4a9ac" vector-effect="non-scaling-stroke" d="
  M 337.27 278.59
  Q 298.85 283.23 260.28 286.64
  C 253.68 287.22 250.44 291.14 252.61 297.80
  Q 256.03 308.33 259.72 318.73
  Q 262.58 326.82 265.40 330.07
  Q 270.17 335.58 277.85 337.46"
/>
<path stroke="#f4ab9d" vector-effect="non-scaling-stroke" d="
  M 277.85 337.46
  Q 275.57 349.65 285.62 356.13
  Q 291.19 359.71 298.46 358.48"
/>
<path stroke="#f7b39d" vector-effect="non-scaling-stroke" d="
  M 298.46 358.48
  Q 313.82 353.96 312.24 338.26"
/>
<path stroke="#a4a9ac" vector-effect="non-scaling-stroke" d="
  M 312.24 338.26
  L 338.04 338.24"
/>
<path stroke="#a9b0b4" vector-effect="non-scaling-stroke" d="
  M 338.04 338.24
  L 346.70 338.15"
/>
<path stroke="#f7b39d" vector-effect="non-scaling-stroke" d="
  M 346.70 338.15
  Q 346.90 338.17 346.99 338.35
  Q 347.04 338.46 347.01 338.65
  Q 345.69 347.56 352.06 353.70
  C 364.42 365.61 385.18 355.01 381.32 337.38
  Q 381.23 336.97 381.47 336.64
  Q 381.62 336.43 381.74 336.37"
/>
<path stroke="#a9b0b4" vector-effect="non-scaling-stroke" d="
  M 381.74 336.37
  Q 391.43 332.20 394.59 323.77
  Q 400.46 308.16 409.02 296.33
  C 417.50 284.61 430.86 273.26 442.58 263.74
  A 0.49 0.49 0.0 0 0 442.20 262.87
  C 407.10 267.97 372.44 274.38 337.27 278.59"
/>
<path stroke="#a16352" vector-effect="non-scaling-stroke" d="
  M 381.74 336.37
  L 381.30 336.22
  Q 380.81 336.05 380.61 335.58
  C 377.62 328.77 371.77 324.91 364.25 324.88
  Q 351.77 324.83 347.22 337.69
  Q 347.15 337.89 347.02 337.97
  Q 346.90 338.06 346.70 338.15"
/>
<path stroke="#4e5a61" vector-effect="non-scaling-stroke" d="
  M 338.04 338.24
  Q 338.21 337.91 337.98 337.78
  Q 337.78 337.67 337.50 337.62
  A 0.12 0.12 0.0 0 1 337.53 337.39
  Q 338.97 337.46 339.48 336.73
  A 0.87 0.80 -24.2 0 0 339.57 336.52
  Q 339.76 335.84 338.84 335.69
  Q 338.41 335.63 338.27 335.21
  Q 337.31 332.46 337.63 331.13
  Q 338.22 328.60 337.79 326.17
  Q 337.09 322.28 337.09 321.46
  Q 337.05 316.27 337.63 311.12
  C 338.60 302.31 337.10 293.59 339.11 284.92
  Q 339.22 284.46 339.10 284.00
  Q 338.82 282.94 339.22 281.87
  Q 339.40 281.40 339.05 281.05
  L 338.74 280.75
  A 0.38 0.38 0.0 0 1 338.88 280.13
  L 339.17 280.03
  Q 339.86 279.78 339.19 279.47
  L 337.27 278.59"
/>
<path stroke="#9b5d4a" vector-effect="non-scaling-stroke" d="
  M 312.24 338.26
  Q 307.66 324.12 292.92 324.88"
/>
<path stroke="#98554a" vector-effect="non-scaling-stroke" d="
  M 292.92 324.88
  Q 281.87 326.38 277.85 337.46"
/>
<path stroke="#eb5f3b" vector-effect="non-scaling-stroke" d="
  M 298.46 358.48
  Q 298.13 357.33 298.40 356.05
  Q 298.51 355.54 298.32 355.06
  Q 297.45 352.88 298.43 350.71
  Q 298.64 350.25 298.62 349.75
  L 298.49 346.52"
/>
<path stroke="#f7b39d" vector-effect="non-scaling-stroke" d="
  M 298.49 346.52
  Q 302.24 343.69 300.51 339.25
  Q 299.32 336.17 295.40 335.68"
/>
<path stroke="#eb5f3b" vector-effect="non-scaling-stroke" d="
  M 295.40 335.68
  Q 298.09 332.14 296.25 328.10
  Q 296.04 327.63 296.30 327.18
  Q 296.57 326.73 296.14 326.38
  Q 295.77 326.10 295.31 326.10
  Q 293.67 326.12 292.92 324.88"
/>
<path stroke="#f4ab9d" vector-effect="non-scaling-stroke" d="
  M 295.40 335.68
  C 284.29 335.99 288.88 351.85 298.49 346.52"
/>
<path stroke="#f4ab9d" vector-effect="non-scaling-stroke" d="
  M 379.84 418.76
  C 383.03 414.21 392.53 419.05 397.04 421.19
  A 0.52 0.52 0.0 0 0 397.73 420.95
  L 401.33 413.53
  A 0.70 0.70 0.0 0 0 401.03 412.60
  C 391.89 407.63 370.71 404.64 368.36 419.76
  C 366.60 431.14 378.92 433.02 386.96 435.52
  C 389.67 436.37 392.16 440.43 388.41 441.91
  C 382.69 444.17 374.76 440.15 370.32 436.65
  A 0.48 0.47 -57.0 0 0 369.60 436.81
  L 365.88 444.19
  A 0.73 0.72 -59.2 0 0 366.11 445.12
  C 374.91 451.31 396.51 455.93 401.04 441.59
  C 403.71 433.14 398.32 428.39 390.93 425.99
  C 387.54 424.88 380.56 423.67 379.65 419.74
  A 1.25 1.24 -34.2 0 1 379.84 418.76"
/>
<path stroke="#f4ab9d" vector-effect="non-scaling-stroke" d="
  M 192.86 417.44
  A 0.60 0.60 0.0 0 1 193.46 418.04
  L 193.43 449.41
  A 0.60 0.60 0.0 0 0 194.03 450.01
  L 203.69 449.99
  A 0.60 0.60 0.0 0 0 204.29 449.39
  L 204.29 417.98
  A 0.60 0.60 0.0 0 1 204.89 417.38
  L 216.30 417.45
  A 0.60 0.60 0.0 0 0 216.91 416.85
  L 216.98 409.61
  A 0.60 0.60 0.0 0 0 216.38 409.00
  L 181.62 408.99
  A 0.60 0.60 0.0 0 0 181.02 409.59
  L 181.03 416.81
  A 0.60 0.60 0.0 0 0 181.63 417.41
  L 192.86 417.44"
/>
<path stroke="#f4ab9d" vector-effect="non-scaling-stroke" d="
  M 232.05 409.52
  A 0.52 0.52 0.0 0 0 231.53 409.00
  L 221.67 409.00
  A 0.52 0.52 0.0 0 0 221.15 409.52
  L 221.15 449.48
  A 0.52 0.52 0.0 0 0 221.67 450.00
  L 231.53 450.00
  A 0.52 0.52 0.0 0 0 232.05 449.48
  L 232.05 409.52"
/>
<path stroke="#f4ab9d" vector-effect="non-scaling-stroke" d="
  M 259.50 418.00
  A 0.60 0.60 0.0 0 1 260.11 417.39
  L 271.42 417.48
  A 0.60 0.60 0.0 0 0 272.02 416.89
  L 272.14 409.61
  A 0.60 0.60 0.0 0 0 271.54 409.00
  L 236.85 408.99
  A 0.60 0.60 0.0 0 0 236.25 409.59
  L 236.25 416.78
  A 0.60 0.60 0.0 0 0 236.85 417.38
  L 247.94 417.48
  A 0.60 0.60 0.0 0 1 248.54 418.08
  L 248.52 449.41
  A 0.60 0.60 0.0 0 0 249.12 450.01
  L 258.94 450.00
  A 0.60 0.60 0.0 0 0 259.54 449.40
  L 259.50 418.00"
/>
<path stroke="#f4ab9d" vector-effect="non-scaling-stroke" d="
  M 303.99 443.03
  A 0.35 0.35 0.0 0 1 304.32 443.25
  L 306.95 449.79
  A 0.35 0.35 0.0 0 0 307.28 450.01
  L 318.16 449.99
  A 0.35 0.35 0.0 0 0 318.48 449.50
  L 301.34 409.20
  A 0.35 0.35 0.0 0 0 301.02 408.99
  L 290.27 409.00
  A 0.35 0.35 0.0 0 0 289.95 409.21
  L 272.35 449.52
  A 0.35 0.35 0.0 0 0 272.68 450.01
  L 283.30 449.97
  A 0.35 0.35 0.0 0 0 283.63 449.75
  L 286.15 443.25
  A 0.35 0.35 0.0 0 1 286.48 443.03
  L 303.99 443.03"
/>
<path stroke="#f4ab9d" vector-effect="non-scaling-stroke" d="
  M 350.83 408.98
  A 0.36 0.36 0.0 0 0 350.47 409.34
  L 350.52 432.69
  A 0.36 0.36 0.0 0 1 349.87 432.91
  L 331.94 409.12
  A 0.36 0.36 0.0 0 0 331.65 408.98
  L 322.47 409.00
  A 0.36 0.36 0.0 0 0 322.11 409.36
  L 322.14 449.65
  A 0.36 0.36 0.0 0 0 322.50 450.01
  L 332.09 449.99
  A 0.36 0.36 0.0 0 0 332.45 449.63
  L 332.40 427.11
  A 0.36 0.36 0.0 0 1 333.05 426.89
  L 350.96 449.86
  A 0.36 0.36 0.0 0 0 351.25 450.00
  L 360.27 449.99
  A 0.36 0.36 0.0 0 0 360.63 449.63
  L 360.65 409.36
  A 0.36 0.36 0.0 0 0 360.29 409.00
  L 350.83 408.98"
/>
<path stroke="#a9b0b4" vector-effect="non-scaling-stroke" d="
  M 433.19 440.99
  A 0.44 0.44 0.0 0 1 432.75 440.55
  L 432.76 409.44
  A 0.44 0.44 0.0 0 0 432.32 409.00
  L 422.33 409.01
  A 0.44 0.44 0.0 0 0 421.89 409.45
  L 421.85 449.56
  A 0.44 0.44 0.0 0 0 422.29 450.00
  L 449.97 450.00
  A 0.44 0.44 0.0 0 0 450.41 449.56
  L 450.41 441.46
  A 0.44 0.44 0.0 0 0 449.97 441.02
  L 433.19 440.99"
/>
<path stroke="#a9b0b4" vector-effect="non-scaling-stroke" d="
  M 466.84 426.41
  A 0.34 0.34 0.0 0 1 466.24 426.19
  L 466.31 409.36
  A 0.34 0.34 0.0 0 0 465.97 409.02
  L 455.65 408.99
  A 0.34 0.34 0.0 0 0 455.31 409.33
  L 455.28 449.67
  A 0.34 0.34 0.0 0 0 455.62 450.01
  L 465.99 449.99
  A 0.34 0.34 0.0 0 0 466.33 449.65
  L 466.21 440.16
  A 0.34 0.34 0.0 0 1 466.30 439.93
  L 471.15 434.61
  A 0.34 0.34 0.0 0 1 471.68 434.64
  L 482.25 449.85
  A 0.34 0.34 0.0 0 0 482.53 450.00
  L 494.83 450.01
  A 0.34 0.34 0.0 0 0 495.11 449.48
  L 479.14 426.48
  A 0.34 0.34 0.0 0 1 479.17 426.06
  L 494.01 409.60
  A 0.34 0.34 0.0 0 0 493.76 409.03
  L 482.01 409.00
  A 0.34 0.34 0.0 0 0 481.75 409.12
  L 466.84 426.41"
/>
<path stroke="#a9b0b4" vector-effect="non-scaling-stroke" d="
  M 415.72 445.00
  A 5.13 5.13 0.0 0 0 410.59 439.87
  A 5.13 5.13 0.0 0 0 405.46 445.00
  A 5.13 5.13 0.0 0 0 410.59 450.13
  A 5.13 5.13 0.0 0 0 415.72 445.00"
/>
<path stroke="#a9b0b4" vector-effect="non-scaling-stroke" d="
  M 168.4695 481.6568
  A 0.67 0.67 0.0 0 0 167.7972 480.9892
  L 167.2972 480.9909
  A 0.67 0.67 0.0 0 0 166.6295 481.6632
  L 166.6705 493.4032
  A 0.67 0.67 0.0 0 0 167.3428 494.0708
  L 167.8428 494.0691
  A 0.67 0.67 0.0 0 0 168.5105 493.3968
  L 168.4695 481.6568"
/>
<path stroke="#a9b0b4" vector-effect="non-scaling-stroke" d="
  M 196.96 488.30
  L 197.03 481.66
  Q 197.03 481.03 196.41 481.03
  L 195.82 481.03
  Q 195.18 481.03 195.19 481.68
  L 195.24 493.44
  Q 195.25 494.01 195.82 493.99
  L 196.49 493.98
  A 0.58 0.58 0.0 0 0 197.04 493.27
  Q 196.60 491.39 198.08 490.28
  A 0.57 0.57 0.0 0 1 198.91 490.43
  L 200.90 493.64
  A 0.69 0.68 75.2 0 0 201.44 493.96
  L 202.42 494.01
  Q 203.30 494.05 202.82 493.31
  L 199.91 488.88
  A 0.61 0.60 51.4 0 1 199.99 488.13
  L 202.35 485.71
  A 0.40 0.40 0.0 0 0 202.09 485.03
  L 201.34 484.98
  Q 200.82 484.95 200.47 485.35
  L 197.69 488.58
  A 0.42 0.41 65.7 0 1 196.96 488.30"
/>
<path stroke="#a9b0b4" vector-effect="non-scaling-stroke" d="
  M 221.50 485.28
  L 221.61 481.55
  Q 221.63 480.98 221.05 481.00
  L 220.40 481.01
  Q 219.83 481.03 219.83 481.60
  L 219.82 493.36
  Q 219.82 493.91 220.36 493.95
  L 221.00 494.01
  Q 221.57 494.06 221.58 493.49
  L 221.62 488.89
  A 2.45 2.45 0.0 0 1 223.71 486.49
  C 227.43 485.94 226.49 491.35 226.35 493.47
  Q 226.32 493.96 226.82 493.99
  L 227.46 494.02
  Q 227.97 494.04 228.01 493.53
  C 228.36 489.92 229.10 484.02 223.86 485.03
  C 223.20 485.16 222.84 485.56 222.22 485.80
  Q 221.48 486.08 221.50 485.28"
/>
<path stroke="#a9b0b4" vector-effect="non-scaling-stroke" d="
  M 327.98 486.42
  L 329.56 486.36
  A 0.53 0.53 0.0 0 0 329.70 485.32
  L 328.02 484.82
  A 0.99 0.99 0.0 0 1 327.41 483.44
  Q 328.00 482.18 329.42 482.50
  A 0.46 0.45 -82.3 0 0 329.98 482.07
  Q 329.99 481.86 329.99 481.66
  Q 330.01 481.07 329.43 481.00
  Q 325.85 480.59 325.59 484.13
  A 1.28 1.26 -15.6 0 1 325.04 485.09
  L 324.70 485.32
  A 0.50 0.50 0.0 0 0 324.69 486.14
  L 325.10 486.44
  Q 325.57 486.78 325.57 487.36
  L 325.55 493.38
  Q 325.55 493.96 326.13 493.99
  L 326.69 494.01
  Q 327.43 494.04 327.42 493.31
  L 327.41 487.02
  A 0.60 0.59 89.0 0 1 327.98 486.42"
/>
<path stroke="#a9b0b4" vector-effect="non-scaling-stroke" d="
  M 372.49 485.25
  L 372.69 481.66
  Q 372.72 481.10 372.16 481.07
  L 371.54 481.04
  A 0.67 0.67 0.0 0 0 370.84 481.71
  L 370.80 493.34
  A 0.61 0.60 -88.0 0 0 371.36 493.95
  L 372.18 494.01
  Q 372.77 494.06 372.70 493.47
  C 372.40 491.03 371.78 486.48 375.59 486.39
  A 1.88 1.87 -0.0 0 1 377.51 488.30
  L 377.41 493.30
  Q 377.40 493.96 378.06 493.97
  L 378.46 493.98
  Q 379.07 493.99 379.07 493.38
  C 379.07 491.30 379.51 487.95 378.55 486.33
  C 377.27 484.17 375.30 484.98 373.17 485.75
  Q 372.44 486.02 372.49 485.25"
/>
<path stroke="#a9b0b4" vector-effect="non-scaling-stroke" d="
  M 408.9589 481.4569
  A 0.42 0.42 0.0 0 0 408.5375 481.0384
  L 407.5975 481.0417
  A 0.42 0.42 0.0 0 0 407.1790 481.4631
  L 407.2211 493.5231
  A 0.42 0.42 0.0 0 0 407.6425 493.9416
  L 408.5825 493.9383
  A 0.42 0.42 0.0 0 0 409.0010 493.5169
  L 408.9589 481.4569"
/>
<path stroke="#a9b0b4" vector-effect="non-scaling-stroke" d="
  M 484.16 485.23
  L 484.22 481.62
  Q 484.23 481.00 483.62 481.01
  L 482.89 481.03
  A 0.58 0.58 0.0 0 0 482.32 481.61
  L 482.38 493.32
  Q 482.38 494.00 483.07 493.99
  L 483.67 493.99
  Q 484.25 493.98 484.22 493.41
  C 484.11 491.33 483.51 486.99 486.30 486.50
  A 2.19 2.19 0.0 0 1 488.87 488.70
  L 488.79 493.35
  Q 488.78 493.93 489.35 493.97
  L 489.96 494.01
  Q 490.68 494.06 490.64 493.34
  C 490.36 488.48 492.22 483.52 484.68 485.63
  Q 484.15 485.78 484.16 485.23"
/>
<path stroke="#a9b0b4" vector-effect="non-scaling-stroke" d="
  M 251.58 490.22
  C 256.08 490.32 260.27 489.21 257.71 483.40
  A 1.42 1.42 0.0 0 0 256.92 482.65
  Q 253.48 481.36 249.84 482.08
  Q 249.35 482.18 249.35 482.68
  L 249.41 493.43
  Q 249.41 493.95 249.93 493.96
  L 250.64 493.98
  Q 251.29 494.00 251.24 493.35
  L 251.04 490.80
  A 0.53 0.53 0.0 0 1 251.58 490.22"
/>
<path stroke="#a9b0b4" vector-effect="non-scaling-stroke" d="
  M 142.24 489.16
  Q 142.09 485.83 142.20 482.47
  Q 142.21 481.95 141.70 481.98
  L 140.79 482.03
  Q 140.20 482.05 140.21 482.64
  C 140.24 485.53 139.69 490.05 141.20 492.24
  C 143.21 495.16 149.13 494.58 149.90 490.69
  Q 150.47 487.83 150.08 482.49
  Q 150.04 481.91 149.46 481.96
  L 148.57 482.04
  Q 148.09 482.08 148.11 482.56
  Q 148.22 486.03 148.16 489.51
  C 148.10 493.28 142.47 494.07 142.24 489.16"
/>
<path stroke="#a9b0b4" vector-effect="non-scaling-stroke" d="
  M 343.07 483.53
  L 345.76 483.38
  A 0.72 0.72 0.0 0 0 345.72 481.95
  L 337.55 481.96
  A 0.59 0.59 0.0 0 0 336.96 482.53
  Q 336.94 483.03 337.31 483.29
  Q 337.57 483.47 338.25 483.42
  Q 339.21 483.35 340.20 483.58
  A 0.68 0.68 0.0 0 1 340.73 484.24
  L 340.71 493.46
  Q 340.71 493.83 341.07 493.92
  Q 342.56 494.29 342.52 493.26
  Q 342.29 487.63 342.41 484.21
  Q 342.43 483.57 343.07 483.53"
/>
<path stroke="#a9b0b4" vector-effect="non-scaling-stroke" d="
  M 470.3110 483.1010
  A 1.11 1.03 7.3 0 0 469.3409 481.9383
  A 1.11 1.03 7.3 0 0 468.1090 482.8190
  A 1.11 1.03 7.3 0 0 469.0791 483.9817
  A 1.11 1.03 7.3 0 0 470.3110 483.1010"
/>
<path stroke="#a9b0b4" vector-effect="non-scaling-stroke" d="
  M 503.36 492.01
  A 2.29 2.28 -75.0 0 1 502.22 490.03
  L 502.19 482.61
  A 0.66 0.66 0.0 0 0 501.49 481.96
  L 500.78 482.00
  Q 500.16 482.04 500.16 482.68
  C 500.19 485.65 499.61 490.48 501.49 492.62
  C 503.43 494.82 508.91 494.56 509.77 491.26
  Q 510.67 487.81 510.05 482.44
  Q 509.99 481.89 509.44 481.94
  L 508.57 482.02
  Q 508.01 482.07 508.04 482.63
  Q 508.21 485.87 508.07 489.11
  C 507.95 491.92 505.93 493.50 503.36 492.01"
/>
<path stroke="#a9b0b4" vector-effect="non-scaling-stroke" d="
  M 524.6543 482.6786
  A 0.68 0.68 0.0 0 0 523.9731 481.9998
  L 523.6931 482.0003
  A 0.68 0.68 0.0 0 0 523.0143 482.6814
  L 523.0257 489.2214
  A 0.68 0.68 0.0 0 0 523.7069 489.9002
  L 523.9869 489.8997
  A 0.68 0.68 0.0 0 0 524.6657 489.2186
  L 524.6543 482.6786"
/>
<path stroke="#a9b0b4" vector-effect="non-scaling-stroke" d="
  M 213.97 484.45
  Q 213.96 483.71 213.83 483.36
  A 0.83 0.83 0.0 0 0 212.23 483.74
  Q 212.37 485.12 210.96 485.32
  A 0.40 0.40 0.0 0 0 210.84 486.07
  L 211.78 486.53
  Q 212.19 486.73 212.21 487.18
  Q 212.34 489.34 212.26 491.48
  Q 212.18 493.69 215.25 494.17
  A 1.17 0.83 -22.2 0 0 216.33 492.46
  Q 215.42 492.16 214.59 492.48
  A 0.49 0.49 0.0 0 1 213.92 492.02
  L 213.94 486.92
  A 0.42 0.41 87.0 0 1 214.31 486.50
  L 216.18 486.27
  A 0.59 0.59 0.0 0 0 216.15 485.09
  L 214.47 484.97
  Q 213.98 484.94 213.97 484.45"
/>
<path stroke="#a9b0b4" vector-effect="non-scaling-stroke" d="
  M 474.34 484.88
  L 473.53 485.30
  A 0.47 0.47 0.0 0 0 473.55 486.15
  L 474.09 486.40
  A 0.96 0.96 0.0 0 1 474.66 487.26
  L 474.74 492.37
  Q 474.75 493.08 475.35 493.47
  Q 477.07 494.61 478.99 493.57
  A 0.58 0.58 0.0 0 0 478.80 492.49
  L 476.98 492.22
  A 0.57 0.56 -86.4 0 1 476.50 491.67
  L 476.38 487.08
  A 0.61 0.60 -3.6 0 1 476.92 486.47
  L 478.72 486.26
  Q 479.07 486.22 479.03 485.87
  Q 479.00 485.70 479.00 485.50
  A 0.59 0.58 -8.5 0 0 478.27 484.97
  Q 476.27 485.49 476.43 483.70
  A 0.83 0.83 0.0 0 0 474.86 483.25
  Q 474.65 483.66 474.72 484.18
  Q 474.78 484.66 474.34 484.88"
/>
<path stroke="#a9b0b4" vector-effect="non-scaling-stroke" d="
  M 156.39 485.31
  L 155.07 484.86
  A 0.54 0.54 0.0 0 0 154.36 485.36
  L 154.33 493.28
  Q 154.33 493.98 155.03 493.99
  L 155.72 494.01
  Q 156.20 494.01 156.20 493.53
  L 156.21 488.74
  A 2.27 2.27 0.0 0 1 158.01 486.53
  C 161.70 485.75 160.81 491.52 160.79 493.45
  Q 160.78 494.00 161.33 493.99
  L 162.13 493.99
  Q 162.67 493.99 162.68 493.45
  C 162.75 490.40 163.41 482.73 157.33 485.27
  Q 156.87 485.47 156.39 485.31"
/>
<path stroke="#a9b0b4" vector-effect="non-scaling-stroke" d="
  M 181.12 489.49
  A 4.61 4.61 0.0 0 0 176.51 484.88
  A 4.61 4.61 0.0 0 0 171.90 489.49
  A 4.61 4.61 0.0 0 0 176.51 494.10
  A 4.61 4.61 0.0 0 0 181.12 489.49"
/>
<path stroke="#a9b0b4" vector-effect="non-scaling-stroke" d="
  M 190.40 491.71
  C 185.47 494.45 183.54 488.44 186.85 486.81
  C 188.07 486.20 189.30 486.85 190.49 487.23
  A 0.70 0.69 72.9 0 0 191.13 486.02
  C 186.96 482.75 181.53 487.07 184.07 491.80
  C 185.53 494.53 188.97 494.83 191.20 492.83
  A 0.69 0.69 0.0 0 0 190.40 491.71"
/>
<path stroke="#a9b0b4" vector-effect="non-scaling-stroke" d="
  M 233.75 490.22
  L 239.00 490.16
  A 1.07 1.07 0.0 0 0 240.05 488.91
  C 238.75 481.46 229.18 485.54 231.99 491.45
  C 233.45 494.51 236.99 494.98 239.32 492.54
  A 0.47 0.47 0.0 0 0 238.77 491.79
  C 237.21 492.58 233.77 493.22 233.33 490.73
  Q 233.24 490.23 233.75 490.22"
/>
<path stroke="#a9b0b4" vector-effect="non-scaling-stroke" d="
  M 269.91 489.50
  A 4.59 4.59 0.0 0 0 265.32 484.91
  A 4.59 4.59 0.0 0 0 260.73 489.50
  A 4.59 4.59 0.0 0 0 265.32 494.09
  A 4.59 4.59 0.0 0 0 269.91 489.50"
/>
<path stroke="#a9b0b4" vector-effect="non-scaling-stroke" d="
  M 281.96 491.22
  L 280.30 485.82
  A 1.24 1.23 44.4 0 0 277.93 485.84
  L 276.44 491.09
  A 0.43 0.43 0.0 0 1 275.62 491.09
  L 273.98 485.61
  Q 273.83 485.11 273.31 485.05
  L 272.79 485.00
  Q 271.95 484.90 272.22 485.71
  L 274.82 493.40
  A 1.22 1.22 0.0 0 0 277.14 493.37
  L 278.79 488.01
  A 0.34 0.34 0.0 0 1 279.43 488.01
  L 281.08 493.23
  A 1.24 1.24 0.0 0 0 283.43 493.26
  L 285.99 485.72
  A 0.54 0.53 9.1 0 0 285.48 485.02
  L 285.01 485.03
  Q 284.48 485.03 284.33 485.54
  L 282.66 491.21
  Q 282.31 492.37 281.96 491.22"
/>
<path stroke="#a9b0b4" vector-effect="non-scaling-stroke" d="
  M 290.22 490.17
  L 295.66 490.14
  Q 296.18 490.14 296.32 489.63
  C 297.30 486.03 293.00 483.79 290.09 485.67
  C 285.58 488.58 288.97 496.12 294.55 493.53
  Q 297.44 492.18 294.25 492.17
  C 293.44 492.16 292.56 492.97 291.31 492.35
  Q 290.26 491.84 289.83 490.77
  Q 289.58 490.18 290.22 490.17"
/>
<path stroke="#a9b0b4" vector-effect="non-scaling-stroke" d="
  M 301.88 485.37
  Q 301.42 484.86 300.67 485.02
  Q 300.24 485.11 300.24 485.54
  L 300.26 493.38
  Q 300.26 493.99 300.88 493.98
  L 301.39 493.97
  Q 301.98 493.95 301.98 493.36
  L 301.99 488.21
  A 1.10 1.09 -14.0 0 1 302.58 487.24
  L 304.77 486.14
  Q 305.00 486.03 304.97 485.77
  Q 304.95 485.59 304.95 485.40
  A 0.46 0.45 79.7 0 0 304.34 484.97
  L 302.66 485.56
  Q 302.21 485.72 301.88 485.37"
/>
<path stroke="#a9b0b4" vector-effect="non-scaling-stroke" d="
  M 321.88 489.50
  A 4.55 4.55 0.0 0 0 317.33 484.95
  A 4.55 4.55 0.0 0 0 312.78 489.50
  A 4.55 4.55 0.0 0 0 317.33 494.05
  A 4.55 4.55 0.0 0 0 321.88 489.50"
/>
<path stroke="#a9b0b4" vector-effect="non-scaling-stroke" d="
  M 350.53 490.19
  L 356.04 490.12
  Q 356.60 490.12 356.70 489.56
  C 357.70 483.78 348.86 483.21 348.38 488.96
  C 347.99 493.60 352.27 495.38 356.17 492.79
  A 0.44 0.44 0.0 0 0 355.90 491.99
  C 353.86 492.15 351.31 493.57 350.15 490.77
  Q 349.92 490.20 350.53 490.19"
/>
<path stroke="#a9b0b4" vector-effect="non-scaling-stroke" d="
  M 366.14 491.70
  C 362.29 494.50 359.23 489.54 362.37 486.77
  A 1.00 0.99 28.1 0 1 363.16 486.53
  L 366.55 487.02
  A 0.58 0.58 0.0 0 0 366.94 485.96
  C 360.90 482.18 356.60 489.68 361.12 493.19
  C 362.83 494.52 365.56 494.32 367.08 492.81
  A 0.73 0.73 0.0 0 0 366.14 491.70"
/>
<path stroke="#a9b0b4" vector-effect="non-scaling-stroke" d="
  M 385.11 485.50
  L 384.16 485.04
  A 0.65 0.65 0.0 0 0 383.23 485.63
  L 383.27 493.50
  Q 383.27 493.98 383.75 493.97
  L 384.48 493.96
  Q 385.02 493.95 385.00 493.41
  C 384.94 491.19 384.02 485.35 388.38 486.57
  A 1.86 1.85 7.7 0 1 389.73 488.34
  L 389.74 493.33
  Q 389.74 493.80 390.18 493.95
  Q 391.31 494.33 391.46 493.25
  C 391.89 490.13 391.75 482.54 385.86 485.50
  Q 385.49 485.68 385.11 485.50"
/>
<path stroke="#a9b0b4" vector-effect="non-scaling-stroke" d="
  M 403.60 489.48
  A 4.57 4.57 0.0 0 0 399.03 484.91
  A 4.57 4.57 0.0 0 0 394.46 489.48
  A 4.57 4.57 0.0 0 0 399.03 494.05
  A 4.57 4.57 0.0 0 0 403.60 489.48"
/>
<path stroke="#a9b0b4" vector-effect="non-scaling-stroke" d="
  M 421.43 489.49
  A 4.58 4.58 0.0 0 0 416.85 484.91
  A 4.58 4.58 0.0 0 0 412.27 489.49
  A 4.58 4.58 0.0 0 0 416.85 494.07
  A 4.58 4.58 0.0 0 0 421.43 489.49"
/>
<path stroke="#a9b0b4" vector-effect="non-scaling-stroke" d="
  M 430.90 493.75
  C 430.15 496.23 427.36 495.51 425.17 495.04
  A 0.38 0.38 0.0 0 0 424.74 495.57
  C 425.74 497.75 429.84 497.13 431.10 496.09
  C 433.39 494.19 432.58 488.31 432.55 485.43
  Q 432.54 484.64 431.82 484.96
  L 430.64 485.50
  Q 430.25 485.68 429.86 485.47
  C 422.39 481.45 421.78 497.79 430.41 493.35
  Q 431.13 492.98 430.90 493.75"
/>
<path stroke="#a9b0b4" vector-effect="non-scaling-stroke" d="
  M 439.51 491.01
  Q 438.60 489.02 437.50 485.73
  Q 437.11 484.57 435.92 485.07
  Q 435.43 485.28 435.63 485.78
  L 438.77 493.22
  Q 438.94 493.62 438.79 494.03
  Q 438.19 495.66 436.34 495.21
  A 0.50 0.50 0.0 0 0 435.73 495.59
  L 435.58 496.31
  A 0.44 0.43 -74.1 0 0 435.85 496.80
  C 438.07 497.62 439.37 496.63 440.19 494.57
  Q 441.94 490.14 443.71 485.68
  Q 443.99 484.96 443.23 485.02
  L 442.61 485.07
  Q 442.12 485.11 441.96 485.57
  L 440.14 490.98
  Q 439.86 491.79 439.51 491.01"
/>
<path stroke="#a9b0b4" vector-effect="non-scaling-stroke" d="
  M 461.31 491.25
  L 459.56 485.56
  A 1.14 1.14 0.0 0 0 457.38 485.56
  L 455.64 491.22
  A 0.35 0.35 0.0 0 1 454.98 491.22
  L 453.26 485.55
  Q 453.10 485.02 452.55 485.02
  L 452.03 485.01
  Q 451.29 485.00 451.54 485.70
  L 454.12 493.06
  A 1.26 1.26 0.0 0 0 456.51 493.05
  L 458.14 488.23
  Q 458.51 487.14 458.86 488.24
  L 460.49 493.45
  A 1.14 1.14 0.0 0 0 462.65 493.49
  L 465.39 485.72
  A 0.56 0.55 -81.3 0 0 464.85 484.98
  Q 463.53 485.03 463.39 486.40
  Q 463.20 488.27 461.80 491.28
  Q 461.51 491.90 461.31 491.25"
/>
<path stroke="#a9b0b4" vector-effect="non-scaling-stroke" d="
  M 470.2008 485.5548
  A 0.49 0.49 0.0 0 0 469.7133 485.0622
  L 468.8934 485.0579
  A 0.49 0.49 0.0 0 0 468.4008 485.5453
  L 468.3592 493.4852
  A 0.49 0.49 0.0 0 0 468.8467 493.9778
  L 469.6666 493.9821
  A 0.49 0.49 0.0 0 0 470.1592 493.4947
  L 470.2008 485.5548"
/>
<path stroke="#a9b0b4" vector-effect="non-scaling-stroke" d="
  M 517.99 490.72
  A 1.26 0.95 -19.0 0 1 516.74 492.56
  L 514.30 491.95
  A 0.77 0.77 0.0 0 0 513.84 493.42
  Q 515.74 494.14 517.36 493.99
  C 519.61 493.78 520.88 492.03 519.53 489.93
  Q 519.33 489.62 519.00 489.48
  L 515.57 487.95
  A 0.59 0.59 0.0 0 1 515.51 486.90
  Q 517.14 485.95 518.70 487.05
  A 0.44 0.43 27.3 0 0 519.36 486.84
  Q 519.81 485.61 518.75 485.16
  C 516.46 484.18 512.63 485.23 513.92 488.64
  A 1.27 1.24 1.3 0 0 514.62 489.36
  L 517.99 490.72"
/>
<path stroke="#a9b0b4" vector-effect="non-scaling-stroke" d="
  M 524.74 493.25
  Q 524.15 492.58 523.30 492.79
  A 0.58 0.58 0.0 0 0 523.40 493.93
  L 524.38 493.99
  A 0.45 0.45 0.0 0 0 524.74 493.25"
/>
<path stroke="#f7b39d" vector-effect="non-scaling-stroke" d="
  M 370.32 341.63
  A 6.01 6.01 0.0 0 0 364.31 335.62
  A 6.01 6.01 0.0 0 0 358.30 341.63
  A 6.01 6.01 0.0 0 0 364.31 347.64
  A 6.01 6.01 0.0 0 0 370.32 341.63"
/>
<path stroke="#f4ab9d" vector-effect="non-scaling-stroke" d="
  M 289.91 433.97
  A 0.47 0.47 0.0 0 0 290.35 434.61
  L 300.27 434.59
  A 0.47 0.47 0.0 0 0 300.70 433.95
  L 295.72 421.28
  A 0.47 0.47 0.0 0 0 294.85 421.28
  L 289.91 433.97"
/>
<path stroke="#a9b0b4" vector-effect="non-scaling-stroke" d="
  M 251.10 484.18
  L 251.06 488.24
  A 0.73 0.73 0.0 0 0 251.79 488.97
  L 253.83 488.99
  A 2.69 2.39 0.5 0 0 256.54 486.62
  L 256.54 485.88
  A 2.69 2.39 0.5 0 0 253.87 483.47
  L 251.83 483.45
  A 0.73 0.73 0.0 0 0 251.10 484.18"
/>
<path stroke="#a9b0b4" vector-effect="non-scaling-stroke" d="
  M 176.4161 492.5593
  A 3.05 2.74 91.2 0 0 179.2194 489.5674
  A 3.05 2.74 91.2 0 0 176.5439 486.4607
  A 3.05 2.74 91.2 0 0 173.7406 489.4526
  A 3.05 2.74 91.2 0 0 176.4161 492.5593"
/>
<path stroke="#a9b0b4" vector-effect="non-scaling-stroke" d="
  M 233.50 489.00
  L 238.32 488.96
  A 0.16 0.16 0.0 0 0 238.48 488.80
  L 238.48 488.71
  A 2.45 2.25 -0.5 0 0 236.01 486.48
  L 235.77 486.48
  A 2.45 2.25 -0.5 0 0 233.34 488.75
  L 233.34 488.84
  A 0.16 0.16 0.0 0 0 233.50 489.00"
/>
<path stroke="#a9b0b4" vector-effect="non-scaling-stroke" d="
  M 265.3080 492.5598
  A 3.06 2.74 90.6 0 0 268.0798 489.5287
  A 3.06 2.74 90.6 0 0 265.3720 486.4402
  A 3.06 2.74 90.6 0 0 262.6002 489.4713
  A 3.06 2.74 90.6 0 0 265.3080 492.5598"
/>
<path stroke="#a9b0b4" vector-effect="non-scaling-stroke" d="
  M 289.94 489.01
  L 294.86 488.97
  A 0.16 0.16 0.0 0 0 295.02 488.81
  L 295.02 488.71
  A 2.47 2.30 -0.4 0 0 292.53 486.43
  L 292.23 486.43
  A 2.47 2.30 -0.4 0 0 289.78 488.75
  L 289.78 488.85
  A 0.16 0.16 0.0 0 0 289.94 489.01"
/>
<path stroke="#a9b0b4" vector-effect="non-scaling-stroke" d="
  M 317.3893 492.5994
  A 3.09 2.81 88.9 0 0 320.1395 489.4561
  A 3.09 2.81 88.9 0 0 317.2707 486.4206
  A 3.09 2.81 88.9 0 0 314.5205 489.5639
  A 3.09 2.81 88.9 0 0 317.3893 492.5994"
/>
<path stroke="#a9b0b4" vector-effect="non-scaling-stroke" d="
  M 350.34 489.01
  L 355.04 489.01
  A 0.22 0.22 0.0 0 0 355.26 488.79
  L 355.26 488.70
  A 2.39 2.29 -0.1 0 0 352.87 486.41
  L 352.51 486.41
  A 2.39 2.29 -0.1 0 0 350.12 488.70
  L 350.12 488.79
  A 0.22 0.22 0.0 0 0 350.34 489.01"
/>
<path stroke="#a9b0b4" vector-effect="non-scaling-stroke" d="
  M 401.6523 489.0666
  A 2.46 2.46 0.0 0 0 399.3020 486.5016
  L 398.9024 486.4842
  A 2.46 2.46 0.0 0 0 396.3374 488.8345
  L 396.2877 489.9734
  A 2.46 2.46 0.0 0 0 398.6380 492.5384
  L 399.0376 492.5558
  A 2.46 2.46 0.0 0 0 401.6026 490.2055
  L 401.6523 489.0666"
/>
<path stroke="#a9b0b4" vector-effect="non-scaling-stroke" d="
  M 416.7385 492.5683
  A 3.06 2.77 91.9 0 0 419.6085 489.6018
  A 3.06 2.77 91.9 0 0 416.9415 486.4517
  A 3.06 2.77 91.9 0 0 414.0715 489.4182
  A 3.06 2.77 91.9 0 0 416.7385 492.5683"
/>
<path stroke="#a9b0b4" vector-effect="non-scaling-stroke" d="
  M 428.2250 492.5791
  A 3.07 2.66 91.4 0 0 430.9592 489.5750
  A 3.07 2.66 91.4 0 0 428.3750 486.4409
  A 3.07 2.66 91.4 0 0 425.6408 489.4450
  A 3.07 2.66 91.4 0 0 428.2250 492.5791"
/>
</g>
<path fill="#ffffff" d="
  M 0.00 0.00
  L 663.00 0.00
  L 663.00 662.00
  L 0.00 662.00
  L 0.00 0.00
  Z
  M 315.51 212.71
  L 379.28 212.68
  Q 379.90 212.68 379.68 212.10
  C 374.48 198.25 368.60 184.53 363.74 170.58
  Q 360.97 162.65 353.25 159.04
  Q 343.08 154.28 314.10 141.20
  Q 307.21 137.88 300.00 140.32
  C 292.07 143.01 290.60 147.51 286.48 155.96
  Q 279.23 170.85 272.02 185.75
  C 269.40 191.16 268.02 195.15 269.75 200.51
  Q 270.86 203.95 274.12 212.26
  Q 274.30 212.74 274.81 212.74
  L 315.51 212.71
  Z
  M 206.16 163.00
  Q 211.51 166.70 213.25 170.04
  Q 221.44 185.76 229.45 201.62
  Q 232.63 207.92 235.27 209.96
  Q 239.95 213.56 246.66 212.52
  Q 247.24 212.43 246.97 211.91
  Q 235.30 188.67 223.36 165.45
  Q 222.39 163.56 218.57 159.26
  Q 207.61 148.57 192.50 148.54
  Q 179.39 148.50 166.28 148.51
  Q 163.24 148.51 161.83 149.19
  C 156.51 151.76 159.22 159.24 164.75 159.24
  Q 177.25 159.25 189.75 159.26
  Q 199.54 159.27 206.16 163.00
  Z
  M 318.04 274.14
  Q 362.20 268.10 406.39 262.06
  C 412.38 261.24 417.32 259.67 419.25 254.01
  Q 424.70 238.03 430.00 222.01
  A 0.39 0.38 9.6 0 0 429.63 221.50
  L 316.20 221.51
  L 226.69 221.50
  A 0.52 0.52 0.0 0 0 226.20 222.19
  Q 228.99 230.40 231.75 238.39
  Q 235.80 250.11 236.26 254.86
  C 237.44 267.22 232.18 276.86 223.83 286.00
  Q 222.88 287.04 224.27 286.85
  L 318.04 274.14
  Z
  M 337.27 278.59
  Q 298.85 283.23 260.28 286.64
  C 253.68 287.22 250.44 291.14 252.61 297.80
  Q 256.03 308.33 259.72 318.73
  Q 262.58 326.82 265.40 330.07
  Q 270.17 335.58 277.85 337.46
  Q 275.57 349.65 285.62 356.13
  Q 291.19 359.71 298.46 358.48
  Q 313.82 353.96 312.24 338.26
  L 338.04 338.24
  L 346.70 338.15
  Q 346.90 338.17 346.99 338.35
  Q 347.04 338.46 347.01 338.65
  Q 345.69 347.56 352.06 353.70
  C 364.42 365.61 385.18 355.01 381.32 337.38
  Q 381.23 336.97 381.47 336.64
  Q 381.62 336.43 381.74 336.37
  Q 391.43 332.20 394.59 323.77
  Q 400.46 308.16 409.02 296.33
  C 417.50 284.61 430.86 273.26 442.58 263.74
  A 0.49 0.49 0.0 0 0 442.20 262.87
  C 407.10 267.97 372.44 274.38 337.27 278.59
  Z
  M 379.84 418.76
  C 383.03 414.21 392.53 419.05 397.04 421.19
  A 0.52 0.52 0.0 0 0 397.73 420.95
  L 401.33 413.53
  A 0.70 0.70 0.0 0 0 401.03 412.60
  C 391.89 407.63 370.71 404.64 368.36 419.76
  C 366.60 431.14 378.92 433.02 386.96 435.52
  C 389.67 436.37 392.16 440.43 388.41 441.91
  C 382.69 444.17 374.76 440.15 370.32 436.65
  A 0.48 0.47 -57.0 0 0 369.60 436.81
  L 365.88 444.19
  A 0.73 0.72 -59.2 0 0 366.11 445.12
  C 374.91 451.31 396.51 455.93 401.04 441.59
  C 403.71 433.14 398.32 428.39 390.93 425.99
  C 387.54 424.88 380.56 423.67 379.65 419.74
  A 1.25 1.24 -34.2 0 1 379.84 418.76
  Z
  M 192.86 417.44
  A 0.60 0.60 0.0 0 1 193.46 418.04
  L 193.43 449.41
  A 0.60 0.60 0.0 0 0 194.03 450.01
  L 203.69 449.99
  A 0.60 0.60 0.0 0 0 204.29 449.39
  L 204.29 417.98
  A 0.60 0.60 0.0 0 1 204.89 417.38
  L 216.30 417.45
  A 0.60 0.60 0.0 0 0 216.91 416.85
  L 216.98 409.61
  A 0.60 0.60 0.0 0 0 216.38 409.00
  L 181.62 408.99
  A 0.60 0.60 0.0 0 0 181.02 409.59
  L 181.03 416.81
  A 0.60 0.60 0.0 0 0 181.63 417.41
  L 192.86 417.44
  Z
  M 232.05 409.52
  A 0.52 0.52 0.0 0 0 231.53 409.00
  L 221.67 409.00
  A 0.52 0.52 0.0 0 0 221.15 409.52
  L 221.15 449.48
  A 0.52 0.52 0.0 0 0 221.67 450.00
  L 231.53 450.00
  A 0.52 0.52 0.0 0 0 232.05 449.48
  L 232.05 409.52
  Z
  M 259.50 418.00
  A 0.60 0.60 0.0 0 1 260.11 417.39
  L 271.42 417.48
  A 0.60 0.60 0.0 0 0 272.02 416.89
  L 272.14 409.61
  A 0.60 0.60 0.0 0 0 271.54 409.00
  L 236.85 408.99
  A 0.60 0.60 0.0 0 0 236.25 409.59
  L 236.25 416.78
  A 0.60 0.60 0.0 0 0 236.85 417.38
  L 247.94 417.48
  A 0.60 0.60 0.0 0 1 248.54 418.08
  L 248.52 449.41
  A 0.60 0.60 0.0 0 0 249.12 450.01
  L 258.94 450.00
  A 0.60 0.60 0.0 0 0 259.54 449.40
  L 259.50 418.00
  Z
  M 303.99 443.03
  A 0.35 0.35 0.0 0 1 304.32 443.25
  L 306.95 449.79
  A 0.35 0.35 0.0 0 0 307.28 450.01
  L 318.16 449.99
  A 0.35 0.35 0.0 0 0 318.48 449.50
  L 301.34 409.20
  A 0.35 0.35 0.0 0 0 301.02 408.99
  L 290.27 409.00
  A 0.35 0.35 0.0 0 0 289.95 409.21
  L 272.35 449.52
  A 0.35 0.35 0.0 0 0 272.68 450.01
  L 283.30 449.97
  A 0.35 0.35 0.0 0 0 283.63 449.75
  L 286.15 443.25
  A 0.35 0.35 0.0 0 1 286.48 443.03
  L 303.99 443.03
  Z
  M 350.83 408.98
  A 0.36 0.36 0.0 0 0 350.47 409.34
  L 350.52 432.69
  A 0.36 0.36 0.0 0 1 349.87 432.91
  L 331.94 409.12
  A 0.36 0.36 0.0 0 0 331.65 408.98
  L 322.47 409.00
  A 0.36 0.36 0.0 0 0 322.11 409.36
  L 322.14 449.65
  A 0.36 0.36 0.0 0 0 322.50 450.01
  L 332.09 449.99
  A 0.36 0.36 0.0 0 0 332.45 449.63
  L 332.40 427.11
  A 0.36 0.36 0.0 0 1 333.05 426.89
  L 350.96 449.86
  A 0.36 0.36 0.0 0 0 351.25 450.00
  L 360.27 449.99
  A 0.36 0.36 0.0 0 0 360.63 449.63
  L 360.65 409.36
  A 0.36 0.36 0.0 0 0 360.29 409.00
  L 350.83 408.98
  Z
  M 433.19 440.99
  A 0.44 0.44 0.0 0 1 432.75 440.55
  L 432.76 409.44
  A 0.44 0.44 0.0 0 0 432.32 409.00
  L 422.33 409.01
  A 0.44 0.44 0.0 0 0 421.89 409.45
  L 421.85 449.56
  A 0.44 0.44 0.0 0 0 422.29 450.00
  L 449.97 450.00
  A 0.44 0.44 0.0 0 0 450.41 449.56
  L 450.41 441.46
  A 0.44 0.44 0.0 0 0 449.97 441.02
  L 433.19 440.99
  Z
  M 466.84 426.41
  A 0.34 0.34 0.0 0 1 466.24 426.19
  L 466.31 409.36
  A 0.34 0.34 0.0 0 0 465.97 409.02
  L 455.65 408.99
  A 0.34 0.34 0.0 0 0 455.31 409.33
  L 455.28 449.67
  A 0.34 0.34 0.0 0 0 455.62 450.01
  L 465.99 449.99
  A 0.34 0.34 0.0 0 0 466.33 449.65
  L 466.21 440.16
  A 0.34 0.34 0.0 0 1 466.30 439.93
  L 471.15 434.61
  A 0.34 0.34 0.0 0 1 471.68 434.64
  L 482.25 449.85
  A 0.34 0.34 0.0 0 0 482.53 450.00
  L 494.83 450.01
  A 0.34 0.34 0.0 0 0 495.11 449.48
  L 479.14 426.48
  A 0.34 0.34 0.0 0 1 479.17 426.06
  L 494.01 409.60
  A 0.34 0.34 0.0 0 0 493.76 409.03
  L 482.01 409.00
  A 0.34 0.34 0.0 0 0 481.75 409.12
  L 466.84 426.41
  Z
  M 415.72 445.00
  A 5.13 5.13 0.0 0 0 410.59 439.87
  A 5.13 5.13 0.0 0 0 405.46 445.00
  A 5.13 5.13 0.0 0 0 410.59 450.13
  A 5.13 5.13 0.0 0 0 415.72 445.00
  Z
  M 168.4695 481.6568
  A 0.67 0.67 0.0 0 0 167.7972 480.9892
  L 167.2972 480.9909
  A 0.67 0.67 0.0 0 0 166.6295 481.6632
  L 166.6705 493.4032
  A 0.67 0.67 0.0 0 0 167.3428 494.0708
  L 167.8428 494.0691
  A 0.67 0.67 0.0 0 0 168.5105 493.3968
  L 168.4695 481.6568
  Z
  M 196.96 488.30
  L 197.03 481.66
  Q 197.03 481.03 196.41 481.03
  L 195.82 481.03
  Q 195.18 481.03 195.19 481.68
  L 195.24 493.44
  Q 195.25 494.01 195.82 493.99
  L 196.49 493.98
  A 0.58 0.58 0.0 0 0 197.04 493.27
  Q 196.60 491.39 198.08 490.28
  A 0.57 0.57 0.0 0 1 198.91 490.43
  L 200.90 493.64
  A 0.69 0.68 75.2 0 0 201.44 493.96
  L 202.42 494.01
  Q 203.30 494.05 202.82 493.31
  L 199.91 488.88
  A 0.61 0.60 51.4 0 1 199.99 488.13
  L 202.35 485.71
  A 0.40 0.40 0.0 0 0 202.09 485.03
  L 201.34 484.98
  Q 200.82 484.95 200.47 485.35
  L 197.69 488.58
  A 0.42 0.41 65.7 0 1 196.96 488.30
  Z
  M 221.50 485.28
  L 221.61 481.55
  Q 221.63 480.98 221.05 481.00
  L 220.40 481.01
  Q 219.83 481.03 219.83 481.60
  L 219.82 493.36
  Q 219.82 493.91 220.36 493.95
  L 221.00 494.01
  Q 221.57 494.06 221.58 493.49
  L 221.62 488.89
  A 2.45 2.45 0.0 0 1 223.71 486.49
  C 227.43 485.94 226.49 491.35 226.35 493.47
  Q 226.32 493.96 226.82 493.99
  L 227.46 494.02
  Q 227.97 494.04 228.01 493.53
  C 228.36 489.92 229.10 484.02 223.86 485.03
  C 223.20 485.16 222.84 485.56 222.22 485.80
  Q 221.48 486.08 221.50 485.28
  Z
  M 327.98 486.42
  L 329.56 486.36
  A 0.53 0.53 0.0 0 0 329.70 485.32
  L 328.02 484.82
  A 0.99 0.99 0.0 0 1 327.41 483.44
  Q 328.00 482.18 329.42 482.50
  A 0.46 0.45 -82.3 0 0 329.98 482.07
  Q 329.99 481.86 329.99 481.66
  Q 330.01 481.07 329.43 481.00
  Q 325.85 480.59 325.59 484.13
  A 1.28 1.26 -15.6 0 1 325.04 485.09
  L 324.70 485.32
  A 0.50 0.50 0.0 0 0 324.69 486.14
  L 325.10 486.44
  Q 325.57 486.78 325.57 487.36
  L 325.55 493.38
  Q 325.55 493.96 326.13 493.99
  L 326.69 494.01
  Q 327.43 494.04 327.42 493.31
  L 327.41 487.02
  A 0.60 0.59 89.0 0 1 327.98 486.42
  Z
  M 372.49 485.25
  L 372.69 481.66
  Q 372.72 481.10 372.16 481.07
  L 371.54 481.04
  A 0.67 0.67 0.0 0 0 370.84 481.71
  L 370.80 493.34
  A 0.61 0.60 -88.0 0 0 371.36 493.95
  L 372.18 494.01
  Q 372.77 494.06 372.70 493.47
  C 372.40 491.03 371.78 486.48 375.59 486.39
  A 1.88 1.87 -0.0 0 1 377.51 488.30
  L 377.41 493.30
  Q 377.40 493.96 378.06 493.97
  L 378.46 493.98
  Q 379.07 493.99 379.07 493.38
  C 379.07 491.30 379.51 487.95 378.55 486.33
  C 377.27 484.17 375.30 484.98 373.17 485.75
  Q 372.44 486.02 372.49 485.25
  Z
  M 408.9589 481.4569
  A 0.42 0.42 0.0 0 0 408.5375 481.0384
  L 407.5975 481.0417
  A 0.42 0.42 0.0 0 0 407.1790 481.4631
  L 407.2211 493.5231
  A 0.42 0.42 0.0 0 0 407.6425 493.9416
  L 408.5825 493.9383
  A 0.42 0.42 0.0 0 0 409.0010 493.5169
  L 408.9589 481.4569
  Z
  M 484.16 485.23
  L 484.22 481.62
  Q 484.23 481.00 483.62 481.01
  L 482.89 481.03
  A 0.58 0.58 0.0 0 0 482.32 481.61
  L 482.38 493.32
  Q 482.38 494.00 483.07 493.99
  L 483.67 493.99
  Q 484.25 493.98 484.22 493.41
  C 484.11 491.33 483.51 486.99 486.30 486.50
  A 2.19 2.19 0.0 0 1 488.87 488.70
  L 488.79 493.35
  Q 488.78 493.93 489.35 493.97
  L 489.96 494.01
  Q 490.68 494.06 490.64 493.34
  C 490.36 488.48 492.22 483.52 484.68 485.63
  Q 484.15 485.78 484.16 485.23
  Z
  M 251.58 490.22
  C 256.08 490.32 260.27 489.21 257.71 483.40
  A 1.42 1.42 0.0 0 0 256.92 482.65
  Q 253.48 481.36 249.84 482.08
  Q 249.35 482.18 249.35 482.68
  L 249.41 493.43
  Q 249.41 493.95 249.93 493.96
  L 250.64 493.98
  Q 251.29 494.00 251.24 493.35
  L 251.04 490.80
  A 0.53 0.53 0.0 0 1 251.58 490.22
  Z
  M 142.24 489.16
  Q 142.09 485.83 142.20 482.47
  Q 142.21 481.95 141.70 481.98
  L 140.79 482.03
  Q 140.20 482.05 140.21 482.64
  C 140.24 485.53 139.69 490.05 141.20 492.24
  C 143.21 495.16 149.13 494.58 149.90 490.69
  Q 150.47 487.83 150.08 482.49
  Q 150.04 481.91 149.46 481.96
  L 148.57 482.04
  Q 148.09 482.08 148.11 482.56
  Q 148.22 486.03 148.16 489.51
  C 148.10 493.28 142.47 494.07 142.24 489.16
  Z
  M 343.07 483.53
  L 345.76 483.38
  A 0.72 0.72 0.0 0 0 345.72 481.95
  L 337.55 481.96
  A 0.59 0.59 0.0 0 0 336.96 482.53
  Q 336.94 483.03 337.31 483.29
  Q 337.57 483.47 338.25 483.42
  Q 339.21 483.35 340.20 483.58
  A 0.68 0.68 0.0 0 1 340.73 484.24
  L 340.71 493.46
  Q 340.71 493.83 341.07 493.92
  Q 342.56 494.29 342.52 493.26
  Q 342.29 487.63 342.41 484.21
  Q 342.43 483.57 343.07 483.53
  Z
  M 470.3110 483.1010
  A 1.11 1.03 7.3 0 0 469.3409 481.9383
  A 1.11 1.03 7.3 0 0 468.1090 482.8190
  A 1.11 1.03 7.3 0 0 469.0791 483.9817
  A 1.11 1.03 7.3 0 0 470.3110 483.1010
  Z
  M 503.36 492.01
  A 2.29 2.28 -75.0 0 1 502.22 490.03
  L 502.19 482.61
  A 0.66 0.66 0.0 0 0 501.49 481.96
  L 500.78 482.00
  Q 500.16 482.04 500.16 482.68
  C 500.19 485.65 499.61 490.48 501.49 492.62
  C 503.43 494.82 508.91 494.56 509.77 491.26
  Q 510.67 487.81 510.05 482.44
  Q 509.99 481.89 509.44 481.94
  L 508.57 482.02
  Q 508.01 482.07 508.04 482.63
  Q 508.21 485.87 508.07 489.11
  C 507.95 491.92 505.93 493.50 503.36 492.01
  Z
  M 524.6543 482.6786
  A 0.68 0.68 0.0 0 0 523.9731 481.9998
  L 523.6931 482.0003
  A 0.68 0.68 0.0 0 0 523.0143 482.6814
  L 523.0257 489.2214
  A 0.68 0.68 0.0 0 0 523.7069 489.9002
  L 523.9869 489.8997
  A 0.68 0.68 0.0 0 0 524.6657 489.2186
  L 524.6543 482.6786
  Z
  M 213.97 484.45
  Q 213.96 483.71 213.83 483.36
  A 0.83 0.83 0.0 0 0 212.23 483.74
  Q 212.37 485.12 210.96 485.32
  A 0.40 0.40 0.0 0 0 210.84 486.07
  L 211.78 486.53
  Q 212.19 486.73 212.21 487.18
  Q 212.34 489.34 212.26 491.48
  Q 212.18 493.69 215.25 494.17
  A 1.17 0.83 -22.2 0 0 216.33 492.46
  Q 215.42 492.16 214.59 492.48
  A 0.49 0.49 0.0 0 1 213.92 492.02
  L 213.94 486.92
  A 0.42 0.41 87.0 0 1 214.31 486.50
  L 216.18 486.27
  A 0.59 0.59 0.0 0 0 216.15 485.09
  L 214.47 484.97
  Q 213.98 484.94 213.97 484.45
  Z
  M 474.34 484.88
  L 473.53 485.30
  A 0.47 0.47 0.0 0 0 473.55 486.15
  L 474.09 486.40
  A 0.96 0.96 0.0 0 1 474.66 487.26
  L 474.74 492.37
  Q 474.75 493.08 475.35 493.47
  Q 477.07 494.61 478.99 493.57
  A 0.58 0.58 0.0 0 0 478.80 492.49
  L 476.98 492.22
  A 0.57 0.56 -86.4 0 1 476.50 491.67
  L 476.38 487.08
  A 0.61 0.60 -3.6 0 1 476.92 486.47
  L 478.72 486.26
  Q 479.07 486.22 479.03 485.87
  Q 479.00 485.70 479.00 485.50
  A 0.59 0.58 -8.5 0 0 478.27 484.97
  Q 476.27 485.49 476.43 483.70
  A 0.83 0.83 0.0 0 0 474.86 483.25
  Q 474.65 483.66 474.72 484.18
  Q 474.78 484.66 474.34 484.88
  Z
  M 156.39 485.31
  L 155.07 484.86
  A 0.54 0.54 0.0 0 0 154.36 485.36
  L 154.33 493.28
  Q 154.33 493.98 155.03 493.99
  L 155.72 494.01
  Q 156.20 494.01 156.20 493.53
  L 156.21 488.74
  A 2.27 2.27 0.0 0 1 158.01 486.53
  C 161.70 485.75 160.81 491.52 160.79 493.45
  Q 160.78 494.00 161.33 493.99
  L 162.13 493.99
  Q 162.67 493.99 162.68 493.45
  C 162.75 490.40 163.41 482.73 157.33 485.27
  Q 156.87 485.47 156.39 485.31
  Z
  M 181.12 489.49
  A 4.61 4.61 0.0 0 0 176.51 484.88
  A 4.61 4.61 0.0 0 0 171.90 489.49
  A 4.61 4.61 0.0 0 0 176.51 494.10
  A 4.61 4.61 0.0 0 0 181.12 489.49
  Z
  M 190.40 491.71
  C 185.47 494.45 183.54 488.44 186.85 486.81
  C 188.07 486.20 189.30 486.85 190.49 487.23
  A 0.70 0.69 72.9 0 0 191.13 486.02
  C 186.96 482.75 181.53 487.07 184.07 491.80
  C 185.53 494.53 188.97 494.83 191.20 492.83
  A 0.69 0.69 0.0 0 0 190.40 491.71
  Z
  M 233.75 490.22
  L 239.00 490.16
  A 1.07 1.07 0.0 0 0 240.05 488.91
  C 238.75 481.46 229.18 485.54 231.99 491.45
  C 233.45 494.51 236.99 494.98 239.32 492.54
  A 0.47 0.47 0.0 0 0 238.77 491.79
  C 237.21 492.58 233.77 493.22 233.33 490.73
  Q 233.24 490.23 233.75 490.22
  Z
  M 269.91 489.50
  A 4.59 4.59 0.0 0 0 265.32 484.91
  A 4.59 4.59 0.0 0 0 260.73 489.50
  A 4.59 4.59 0.0 0 0 265.32 494.09
  A 4.59 4.59 0.0 0 0 269.91 489.50
  Z
  M 281.96 491.22
  L 280.30 485.82
  A 1.24 1.23 44.4 0 0 277.93 485.84
  L 276.44 491.09
  A 0.43 0.43 0.0 0 1 275.62 491.09
  L 273.98 485.61
  Q 273.83 485.11 273.31 485.05
  L 272.79 485.00
  Q 271.95 484.90 272.22 485.71
  L 274.82 493.40
  A 1.22 1.22 0.0 0 0 277.14 493.37
  L 278.79 488.01
  A 0.34 0.34 0.0 0 1 279.43 488.01
  L 281.08 493.23
  A 1.24 1.24 0.0 0 0 283.43 493.26
  L 285.99 485.72
  A 0.54 0.53 9.1 0 0 285.48 485.02
  L 285.01 485.03
  Q 284.48 485.03 284.33 485.54
  L 282.66 491.21
  Q 282.31 492.37 281.96 491.22
  Z
  M 290.22 490.17
  L 295.66 490.14
  Q 296.18 490.14 296.32 489.63
  C 297.30 486.03 293.00 483.79 290.09 485.67
  C 285.58 488.58 288.97 496.12 294.55 493.53
  Q 297.44 492.18 294.25 492.17
  C 293.44 492.16 292.56 492.97 291.31 492.35
  Q 290.26 491.84 289.83 490.77
  Q 289.58 490.18 290.22 490.17
  Z
  M 301.88 485.37
  Q 301.42 484.86 300.67 485.02
  Q 300.24 485.11 300.24 485.54
  L 300.26 493.38
  Q 300.26 493.99 300.88 493.98
  L 301.39 493.97
  Q 301.98 493.95 301.98 493.36
  L 301.99 488.21
  A 1.10 1.09 -14.0 0 1 302.58 487.24
  L 304.77 486.14
  Q 305.00 486.03 304.97 485.77
  Q 304.95 485.59 304.95 485.40
  A 0.46 0.45 79.7 0 0 304.34 484.97
  L 302.66 485.56
  Q 302.21 485.72 301.88 485.37
  Z
  M 321.88 489.50
  A 4.55 4.55 0.0 0 0 317.33 484.95
  A 4.55 4.55 0.0 0 0 312.78 489.50
  A 4.55 4.55 0.0 0 0 317.33 494.05
  A 4.55 4.55 0.0 0 0 321.88 489.50
  Z
  M 350.53 490.19
  L 356.04 490.12
  Q 356.60 490.12 356.70 489.56
  C 357.70 483.78 348.86 483.21 348.38 488.96
  C 347.99 493.60 352.27 495.38 356.17 492.79
  A 0.44 0.44 0.0 0 0 355.90 491.99
  C 353.86 492.15 351.31 493.57 350.15 490.77
  Q 349.92 490.20 350.53 490.19
  Z
  M 366.14 491.70
  C 362.29 494.50 359.23 489.54 362.37 486.77
  A 1.00 0.99 28.1 0 1 363.16 486.53
  L 366.55 487.02
  A 0.58 0.58 0.0 0 0 366.94 485.96
  C 360.90 482.18 356.60 489.68 361.12 493.19
  C 362.83 494.52 365.56 494.32 367.08 492.81
  A 0.73 0.73 0.0 0 0 366.14 491.70
  Z
  M 385.11 485.50
  L 384.16 485.04
  A 0.65 0.65 0.0 0 0 383.23 485.63
  L 383.27 493.50
  Q 383.27 493.98 383.75 493.97
  L 384.48 493.96
  Q 385.02 493.95 385.00 493.41
  C 384.94 491.19 384.02 485.35 388.38 486.57
  A 1.86 1.85 7.7 0 1 389.73 488.34
  L 389.74 493.33
  Q 389.74 493.80 390.18 493.95
  Q 391.31 494.33 391.46 493.25
  C 391.89 490.13 391.75 482.54 385.86 485.50
  Q 385.49 485.68 385.11 485.50
  Z
  M 403.60 489.48
  A 4.57 4.57 0.0 0 0 399.03 484.91
  A 4.57 4.57 0.0 0 0 394.46 489.48
  A 4.57 4.57 0.0 0 0 399.03 494.05
  A 4.57 4.57 0.0 0 0 403.60 489.48
  Z
  M 421.43 489.49
  A 4.58 4.58 0.0 0 0 416.85 484.91
  A 4.58 4.58 0.0 0 0 412.27 489.49
  A 4.58 4.58 0.0 0 0 416.85 494.07
  A 4.58 4.58 0.0 0 0 421.43 489.49
  Z
  M 430.90 493.75
  C 430.15 496.23 427.36 495.51 425.17 495.04
  A 0.38 0.38 0.0 0 0 424.74 495.57
  C 425.74 497.75 429.84 497.13 431.10 496.09
  C 433.39 494.19 432.58 488.31 432.55 485.43
  Q 432.54 484.64 431.82 484.96
  L 430.64 485.50
  Q 430.25 485.68 429.86 485.47
  C 422.39 481.45 421.78 497.79 430.41 493.35
  Q 431.13 492.98 430.90 493.75
  Z
  M 439.51 491.01
  Q 438.60 489.02 437.50 485.73
  Q 437.11 484.57 435.92 485.07
  Q 435.43 485.28 435.63 485.78
  L 438.77 493.22
  Q 438.94 493.62 438.79 494.03
  Q 438.19 495.66 436.34 495.21
  A 0.50 0.50 0.0 0 0 435.73 495.59
  L 435.58 496.31
  A 0.44 0.43 -74.1 0 0 435.85 496.80
  C 438.07 497.62 439.37 496.63 440.19 494.57
  Q 441.94 490.14 443.71 485.68
  Q 443.99 484.96 443.23 485.02
  L 442.61 485.07
  Q 442.12 485.11 441.96 485.57
  L 440.14 490.98
  Q 439.86 491.79 439.51 491.01
  Z
  M 461.31 491.25
  L 459.56 485.56
  A 1.14 1.14 0.0 0 0 457.38 485.56
  L 455.64 491.22
  A 0.35 0.35 0.0 0 1 454.98 491.22
  L 453.26 485.55
  Q 453.10 485.02 452.55 485.02
  L 452.03 485.01
  Q 451.29 485.00 451.54 485.70
  L 454.12 493.06
  A 1.26 1.26 0.0 0 0 456.51 493.05
  L 458.14 488.23
  Q 458.51 487.14 458.86 488.24
  L 460.49 493.45
  A 1.14 1.14 0.0 0 0 462.65 493.49
  L 465.39 485.72
  A 0.56 0.55 -81.3 0 0 464.85 484.98
  Q 463.53 485.03 463.39 486.40
  Q 463.20 488.27 461.80 491.28
  Q 461.51 491.90 461.31 491.25
  Z
  M 470.2008 485.5548
  A 0.49 0.49 0.0 0 0 469.7133 485.0622
  L 468.8934 485.0579
  A 0.49 0.49 0.0 0 0 468.4008 485.5453
  L 468.3592 493.4852
  A 0.49 0.49 0.0 0 0 468.8467 493.9778
  L 469.6666 493.9821
  A 0.49 0.49 0.0 0 0 470.1592 493.4947
  L 470.2008 485.5548
  Z
  M 517.99 490.72
  A 1.26 0.95 -19.0 0 1 516.74 492.56
  L 514.30 491.95
  A 0.77 0.77 0.0 0 0 513.84 493.42
  Q 515.74 494.14 517.36 493.99
  C 519.61 493.78 520.88 492.03 519.53 489.93
  Q 519.33 489.62 519.00 489.48
  L 515.57 487.95
  A 0.59 0.59 0.0 0 1 515.51 486.90
  Q 517.14 485.95 518.70 487.05
  A 0.44 0.43 27.3 0 0 519.36 486.84
  Q 519.81 485.61 518.75 485.16
  C 516.46 484.18 512.63 485.23 513.92 488.64
  A 1.27 1.24 1.3 0 0 514.62 489.36
  L 517.99 490.72
  Z
  M 524.74 493.25
  Q 524.15 492.58 523.30 492.79
  A 0.58 0.58 0.0 0 0 523.40 493.93
  L 524.38 493.99
  A 0.45 0.45 0.0 0 0 524.74 493.25
  Z"
/>
<path fill="#e8573b" d="
  M 314.10 141.20
  L 312.48 142.72
  A 1.09 1.06 -27.7 0 0 312.16 143.70
  Q 313.68 152.05 311.17 159.15
  C 299.73 158.25 291.89 170.66 300.46 179.50
  Q 306.25 185.48 315.46 181.70
  Q 315.94 182.26 316.54 182.31
  Q 317.00 182.35 317.01 181.89
  Q 317.02 181.48 317.27 181.27
  Q 317.65 180.98 317.57 181.45
  Q 317.25 183.49 317.01 185.54
  C 316.72 187.94 317.47 190.69 316.94 193.40
  Q 315.33 201.75 316.79 210.22
  Q 316.85 210.57 316.50 210.61
  L 315.53 210.70
  A 0.47 0.47 0.0 0 0 315.39 211.59
  Q 316.50 212.09 317.76 211.83
  Q 317.88 211.81 317.88 211.87
  L 317.88 212.14
  Q 317.88 212.20 317.82 212.19
  Q 315.74 211.77 315.51 212.71
  L 274.81 212.74
  Q 274.30 212.74 274.12 212.26
  Q 270.86 203.95 269.75 200.51
  C 268.02 195.15 269.40 191.16 272.02 185.75
  Q 279.23 170.85 286.48 155.96
  C 290.60 147.51 292.07 143.01 300.00 140.32
  Q 307.21 137.88 314.10 141.20
  Z"
/>
<path fill="#ee663b" d="
  M 314.10 141.20
  Q 343.08 154.28 353.25 159.04
  Q 360.97 162.65 363.74 170.58
  C 368.60 184.53 374.48 198.25 379.68 212.10
  Q 379.90 212.68 379.28 212.68
  L 315.51 212.71
  Q 315.74 211.77 317.82 212.19
  Q 317.88 212.20 317.88 212.14
  L 317.88 211.87
  Q 317.88 211.81 317.76 211.83
  Q 316.50 212.09 315.39 211.59
  A 0.47 0.47 0.0 0 1 315.53 210.70
  L 316.50 210.61
  Q 316.85 210.57 316.79 210.22
  Q 315.33 201.75 316.94 193.40
  C 317.47 190.69 316.72 187.94 317.01 185.54
  Q 317.25 183.49 317.57 181.45
  Q 317.65 180.98 317.27 181.27
  Q 317.02 181.48 317.01 181.89
  Q 317.00 182.35 316.54 182.31
  Q 315.94 182.26 315.46 181.70
  C 325.59 175.18 322.94 161.32 311.17 159.15
  Q 313.68 152.05 312.16 143.70
  A 1.09 1.06 -27.7 0 1 312.48 142.72
  L 314.10 141.20
  Z"
/>
<path fill="#e8573b" d="
  M 218.57 159.26
  Q 218.31 159.90 218.38 160.74
  Q 218.41 161.15 218.00 161.18
  Q 213.87 161.44 210.07 163.08
  Q 209.63 163.27 209.16 163.24
  L 206.16 163.00
  Q 199.54 159.27 189.75 159.26
  Q 177.25 159.25 164.75 159.24
  C 159.22 159.24 156.51 151.76 161.83 149.19
  Q 163.24 148.51 166.28 148.51
  Q 179.39 148.50 192.50 148.54
  Q 207.61 148.57 218.57 159.26
  Z"
/>
<path fill="#ffffff" d="
  M 311.17 159.15
  C 322.94 161.32 325.59 175.18 315.46 181.70
  Q 306.25 185.48 300.46 179.50
  C 291.89 170.66 299.73 158.25 311.17 159.15
  Z"
/>
<path fill="#ee663b" d="
  M 218.57 159.26
  Q 222.39 163.56 223.36 165.45
  Q 235.30 188.67 246.97 211.91
  Q 247.24 212.43 246.66 212.52
  Q 239.95 213.56 235.27 209.96
  Q 232.63 207.92 229.45 201.62
  Q 221.44 185.76 213.25 170.04
  Q 211.51 166.70 206.16 163.00
  L 209.16 163.24
  Q 209.63 163.27 210.07 163.08
  Q 213.87 161.44 218.00 161.18
  Q 218.41 161.15 218.38 160.74
  Q 218.31 159.90 218.57 159.26
  Z"
/>
<path fill="#485359" d="
  M 316.20 221.51
  L 319.79 222.54
  A 0.16 0.16 0.0 0 1 319.75 222.86
  L 319.29 222.86
  Q 318.67 222.86 318.75 223.46
  Q 319.26 227.58 318.86 231.68
  Q 318.34 236.94 318.42 239.39
  Q 318.97 255.04 318.98 271.83
  A 1.02 1.02 0.0 0 1 317.74 272.83
  Q 316.64 272.57 315.90 272.93
  A 0.25 0.25 0.0 0 0 316.04 273.41
  Q 318.66 273.11 318.04 274.14
  L 224.27 286.85
  Q 222.88 287.04 223.83 286.00
  C 232.18 276.86 237.44 267.22 236.26 254.86
  Q 235.80 250.11 231.75 238.39
  Q 228.99 230.40 226.20 222.19
  A 0.52 0.52 0.0 0 1 226.69 221.50
  L 316.20 221.51
  Z"
/>
<path fill="#536068" d="
  M 316.20 221.51
  L 429.63 221.50
  A 0.39 0.38 9.6 0 1 430.00 222.01
  Q 424.70 238.03 419.25 254.01
  C 417.32 259.67 412.38 261.24 406.39 262.06
  Q 362.20 268.10 318.04 274.14
  Q 318.66 273.11 316.04 273.41
  A 0.25 0.25 0.0 0 1 315.90 272.93
  Q 316.64 272.57 317.74 272.83
  A 1.02 1.02 0.0 0 0 318.98 271.83
  Q 318.97 255.04 318.42 239.39
  Q 318.34 236.94 318.86 231.68
  Q 319.26 227.58 318.75 223.46
  Q 318.67 222.86 319.29 222.86
  L 319.75 222.86
  A 0.16 0.16 0.0 0 0 319.79 222.54
  L 316.20 221.51
  Z"
/>
<path fill="#536068" d="
  M 381.74 336.37
  L 381.30 336.22
  Q 380.81 336.05 380.61 335.58
  C 377.62 328.77 371.77 324.91 364.25 324.88
  Q 351.77 324.83 347.22 337.69
  Q 347.15 337.89 347.02 337.97
  Q 346.90 338.06 346.70 338.15
  L 338.04 338.24
  Q 338.21 337.91 337.98 337.78
  Q 337.78 337.67 337.50 337.62
  A 0.12 0.12 0.0 0 1 337.53 337.39
  Q 338.97 337.46 339.48 336.73
  A 0.87 0.80 -24.2 0 0 339.57 336.52
  Q 339.76 335.84 338.84 335.69
  Q 338.41 335.63 338.27 335.21
  Q 337.31 332.46 337.63 331.13
  Q 338.22 328.60 337.79 326.17
  Q 337.09 322.28 337.09 321.46
  Q 337.05 316.27 337.63 311.12
  C 338.60 302.31 337.10 293.59 339.11 284.92
  Q 339.22 284.46 339.10 284.00
  Q 338.82 282.94 339.22 281.87
  Q 339.40 281.40 339.05 281.05
  L 338.74 280.75
  A 0.38 0.38 0.0 0 1 338.88 280.13
  L 339.17 280.03
  Q 339.86 279.78 339.19 279.47
  L 337.27 278.59
  C 372.44 274.38 407.10 267.97 442.20 262.87
  A 0.49 0.49 0.0 0 1 442.58 263.74
  C 430.86 273.26 417.50 284.61 409.02 296.33
  Q 400.46 308.16 394.59 323.77
  Q 391.43 332.20 381.74 336.37
  Z"
/>
<path fill="#485359" d="
  M 337.27 278.59
  L 339.19 279.47
  Q 339.86 279.78 339.17 280.03
  L 338.88 280.13
  A 0.38 0.38 0.0 0 0 338.74 280.75
  L 339.05 281.05
  Q 339.40 281.40 339.22 281.87
  Q 338.82 282.94 339.10 284.00
  Q 339.22 284.46 339.11 284.92
  C 337.10 293.59 338.60 302.31 337.63 311.12
  Q 337.05 316.27 337.09 321.46
  Q 337.09 322.28 337.79 326.17
  Q 338.22 328.60 337.63 331.13
  Q 337.31 332.46 338.27 335.21
  Q 338.41 335.63 338.84 335.69
  Q 339.76 335.84 339.57 336.52
  A 0.87 0.80 -24.2 0 1 339.48 336.73
  Q 338.97 337.46 337.53 337.39
  A 0.12 0.12 0.0 0 0 337.50 337.62
  Q 337.78 337.67 337.98 337.78
  Q 338.21 337.91 338.04 338.24
  L 312.24 338.26
  Q 307.66 324.12 292.92 324.88
  Q 281.87 326.38 277.85 337.46
  Q 270.17 335.58 265.40 330.07
  Q 262.58 326.82 259.72 318.73
  Q 256.03 308.33 252.61 297.80
  C 250.44 291.14 253.68 287.22 260.28 286.64
  Q 298.85 283.23 337.27 278.59
  Z"
/>
<path fill="#ee663b" d="
  M 312.24 338.26
  Q 313.82 353.96 298.46 358.48
  Q 298.13 357.33 298.40 356.05
  Q 298.51 355.54 298.32 355.06
  Q 297.45 352.88 298.43 350.71
  Q 298.64 350.25 298.62 349.75
  L 298.49 346.52
  Q 302.24 343.69 300.51 339.25
  Q 299.32 336.17 295.40 335.68
  Q 298.09 332.14 296.25 328.10
  Q 296.04 327.63 296.30 327.18
  Q 296.57 326.73 296.14 326.38
  Q 295.77 326.10 295.31 326.10
  Q 293.67 326.12 292.92 324.88
  Q 307.66 324.12 312.24 338.26
  Z"
/>
<path fill="#ee663b" d="
  M 381.74 336.37
  Q 381.62 336.43 381.47 336.64
  Q 381.23 336.97 381.32 337.38
  C 385.18 355.01 364.42 365.61 352.06 353.70
  Q 345.69 347.56 347.01 338.65
  Q 347.04 338.46 346.99 338.35
  Q 346.90 338.17 346.70 338.15
  Q 346.90 338.06 347.02 337.97
  Q 347.15 337.89 347.22 337.69
  Q 351.77 324.83 364.25 324.88
  C 371.77 324.91 377.62 328.77 380.61 335.58
  Q 380.81 336.05 381.30 336.22
  L 381.74 336.37
  Z
  M 370.32 341.63
  A 6.01 6.01 0.0 0 0 364.31 335.62
  A 6.01 6.01 0.0 0 0 358.30 341.63
  A 6.01 6.01 0.0 0 0 364.31 347.64
  A 6.01 6.01 0.0 0 0 370.32 341.63
  Z"
/>
<path fill="#e8573b" d="
  M 292.92 324.88
  Q 293.67 326.12 295.31 326.10
  Q 295.77 326.10 296.14 326.38
  Q 296.57 326.73 296.30 327.18
  Q 296.04 327.63 296.25 328.10
  Q 298.09 332.14 295.40 335.68
  C 284.29 335.99 288.88 351.85 298.49 346.52
  L 298.62 349.75
  Q 298.64 350.25 298.43 350.71
  Q 297.45 352.88 298.32 355.06
  Q 298.51 355.54 298.40 356.05
  Q 298.13 357.33 298.46 358.48
  Q 291.19 359.71 285.62 356.13
  Q 275.57 349.65 277.85 337.46
  Q 281.87 326.38 292.92 324.88
  Z"
/>
<path fill="#ffffff" d="
  M 295.40 335.68
  Q 299.32 336.17 300.51 339.25
  Q 302.24 343.69 298.49 346.52
  C 288.88 351.85 284.29 335.99 295.40 335.68
  Z"
/>
<circle fill="#ffffff" cx="364.31" cy="341.63" r="6.01"/>
<path fill="#e8573b" d="
  M 379.65 419.74
  C 380.56 423.67 387.54 424.88 390.93 425.99
  C 398.32 428.39 403.71 433.14 401.04 441.59
  C 396.51 455.93 374.91 451.31 366.11 445.12
  A 0.73 0.72 -59.2 0 1 365.88 444.19
  L 369.60 436.81
  A 0.48 0.47 -57.0 0 1 370.32 436.65
  C 374.76 440.15 382.69 444.17 388.41 441.91
  C 392.16 440.43 389.67 436.37 386.96 435.52
  C 378.92 433.02 366.60 431.14 368.36 419.76
  C 370.71 404.64 391.89 407.63 401.03 412.60
  A 0.70 0.70 0.0 0 1 401.33 413.53
  L 397.73 420.95
  A 0.52 0.52 0.0 0 1 397.04 421.19
  C 392.53 419.05 383.03 414.21 379.84 418.76
  A 1.25 1.24 -34.2 0 0 379.65 419.74
  Z"
/>
<path fill="#e8573b" d="
  M 192.86 417.44
  L 181.63 417.41
  A 0.60 0.60 0.0 0 1 181.03 416.81
  L 181.02 409.59
  A 0.60 0.60 0.0 0 1 181.62 408.99
  L 216.38 409.00
  A 0.60 0.60 0.0 0 1 216.98 409.61
  L 216.91 416.85
  A 0.60 0.60 0.0 0 1 216.30 417.45
  L 204.89 417.38
  A 0.60 0.60 0.0 0 0 204.29 417.98
  L 204.29 449.39
  A 0.60 0.60 0.0 0 1 203.69 449.99
  L 194.03 450.01
  A 0.60 0.60 0.0 0 1 193.43 449.41
  L 193.46 418.04
  A 0.60 0.60 0.0 0 0 192.86 417.44
  Z"
/>
<rect fill="#e8573b" x="221.15" y="409.00" width="10.90" height="41.00" rx="0.52"/>
<path fill="#e8573b" d="
  M 259.50 418.00
  L 259.54 449.40
  A 0.60 0.60 0.0 0 1 258.94 450.00
  L 249.12 450.01
  A 0.60 0.60 0.0 0 1 248.52 449.41
  L 248.54 418.08
  A 0.60 0.60 0.0 0 0 247.94 417.48
  L 236.85 417.38
  A 0.60 0.60 0.0 0 1 236.25 416.78
  L 236.25 409.59
  A 0.60 0.60 0.0 0 1 236.85 408.99
  L 271.54 409.00
  A 0.60 0.60 0.0 0 1 272.14 409.61
  L 272.02 416.89
  A 0.60 0.60 0.0 0 1 271.42 417.48
  L 260.11 417.39
  A 0.60 0.60 0.0 0 0 259.50 418.00
  Z"
/>
<path fill="#e8573b" d="
  M 303.99 443.03
  L 286.48 443.03
  A 0.35 0.35 0.0 0 0 286.15 443.25
  L 283.63 449.75
  A 0.35 0.35 0.0 0 1 283.30 449.97
  L 272.68 450.01
  A 0.35 0.35 0.0 0 1 272.35 449.52
  L 289.95 409.21
  A 0.35 0.35 0.0 0 1 290.27 409.00
  L 301.02 408.99
  A 0.35 0.35 0.0 0 1 301.34 409.20
  L 318.48 449.50
  A 0.35 0.35 0.0 0 1 318.16 449.99
  L 307.28 450.01
  A 0.35 0.35 0.0 0 1 306.95 449.79
  L 304.32 443.25
  A 0.35 0.35 0.0 0 0 303.99 443.03
  Z
  M 289.91 433.97
  A 0.47 0.47 0.0 0 0 290.35 434.61
  L 300.27 434.59
  A 0.47 0.47 0.0 0 0 300.70 433.95
  L 295.72 421.28
  A 0.47 0.47 0.0 0 0 294.85 421.28
  L 289.91 433.97
  Z"
/>
<path fill="#e8573b" d="
  M 350.83 408.98
  L 360.29 409.00
  A 0.36 0.36 0.0 0 1 360.65 409.36
  L 360.63 449.63
  A 0.36 0.36 0.0 0 1 360.27 449.99
  L 351.25 450.00
  A 0.36 0.36 0.0 0 1 350.96 449.86
  L 333.05 426.89
  A 0.36 0.36 0.0 0 0 332.40 427.11
  L 332.45 449.63
  A 0.36 0.36 0.0 0 1 332.09 449.99
  L 322.50 450.01
  A 0.36 0.36 0.0 0 1 322.14 449.65
  L 322.11 409.36
  A 0.36 0.36 0.0 0 1 322.47 409.00
  L 331.65 408.98
  A 0.36 0.36 0.0 0 1 331.94 409.12
  L 349.87 432.91
  A 0.36 0.36 0.0 0 0 350.52 432.69
  L 350.47 409.34
  A 0.36 0.36 0.0 0 1 350.83 408.98
  Z"
/>
<path fill="#536068" d="
  M 433.19 440.99
  L 449.97 441.02
  A 0.44 0.44 0.0 0 1 450.41 441.46
  L 450.41 449.56
  A 0.44 0.44 0.0 0 1 449.97 450.00
  L 422.29 450.00
  A 0.44 0.44 0.0 0 1 421.85 449.56
  L 421.89 409.45
  A 0.44 0.44 0.0 0 1 422.33 409.01
  L 432.32 409.00
  A 0.44 0.44 0.0 0 1 432.76 409.44
  L 432.75 440.55
  A 0.44 0.44 0.0 0 0 433.19 440.99
  Z"
/>
<path fill="#536068" d="
  M 466.84 426.41
  L 481.75 409.12
  A 0.34 0.34 0.0 0 1 482.01 409.00
  L 493.76 409.03
  A 0.34 0.34 0.0 0 1 494.01 409.60
  L 479.17 426.06
  A 0.34 0.34 0.0 0 0 479.14 426.48
  L 495.11 449.48
  A 0.34 0.34 0.0 0 1 494.83 450.01
  L 482.53 450.00
  A 0.34 0.34 0.0 0 1 482.25 449.85
  L 471.68 434.64
  A 0.34 0.34 0.0 0 0 471.15 434.61
  L 466.30 439.93
  A 0.34 0.34 0.0 0 0 466.21 440.16
  L 466.33 449.65
  A 0.34 0.34 0.0 0 1 465.99 449.99
  L 455.62 450.01
  A 0.34 0.34 0.0 0 1 455.28 449.67
  L 455.31 409.33
  A 0.34 0.34 0.0 0 1 455.65 408.99
  L 465.97 409.02
  A 0.34 0.34 0.0 0 1 466.31 409.36
  L 466.24 426.19
  A 0.34 0.34 0.0 0 0 466.84 426.41
  Z"
/>
<path fill="#ffffff" d="
  M 289.91 433.97
  L 294.85 421.28
  A 0.47 0.47 0.0 0 1 295.72 421.28
  L 300.70 433.95
  A 0.47 0.47 0.0 0 1 300.27 434.59
  L 290.35 434.61
  A 0.47 0.47 0.0 0 1 289.91 433.97
  Z"
/>
<circle fill="#536068" cx="410.59" cy="445.00" r="5.13"/>
<rect fill="#536068" x="-0.92" y="-6.54" transform="translate(167.57,487.53) rotate(-0.2)" width="1.84" height="13.08" rx="0.67"/>
<path fill="#536068" d="
  M 197.69 488.58
  L 200.47 485.35
  Q 200.82 484.95 201.34 484.98
  L 202.09 485.03
  A 0.40 0.40 0.0 0 1 202.35 485.71
  L 199.99 488.13
  A 0.61 0.60 51.4 0 0 199.91 488.88
  L 202.82 493.31
  Q 203.30 494.05 202.42 494.01
  L 201.44 493.96
  A 0.69 0.68 75.2 0 1 200.90 493.64
  L 198.91 490.43
  A 0.57 0.57 0.0 0 0 198.08 490.28
  Q 196.60 491.39 197.04 493.27
  A 0.58 0.58 0.0 0 1 196.49 493.98
  L 195.82 493.99
  Q 195.25 494.01 195.24 493.44
  L 195.19 481.68
  Q 195.18 481.03 195.82 481.03
  L 196.41 481.03
  Q 197.03 481.03 197.03 481.66
  L 196.96 488.30
  A 0.42 0.41 65.7 0 0 197.69 488.58
  Z"
/>
<path fill="#536068" d="
  M 222.22 485.80
  C 222.84 485.56 223.20 485.16 223.86 485.03
  C 229.10 484.02 228.36 489.92 228.01 493.53
  Q 227.97 494.04 227.46 494.02
  L 226.82 493.99
  Q 226.32 493.96 226.35 493.47
  C 226.49 491.35 227.43 485.94 223.71 486.49
  A 2.45 2.45 0.0 0 0 221.62 488.89
  L 221.58 493.49
  Q 221.57 494.06 221.00 494.01
  L 220.36 493.95
  Q 219.82 493.91 219.82 493.36
  L 219.83 481.60
  Q 219.83 481.03 220.40 481.01
  L 221.05 481.00
  Q 221.63 480.98 221.61 481.55
  L 221.50 485.28
  Q 221.48 486.08 222.22 485.80
  Z"
/>
<path fill="#536068" d="
  M 327.41 487.02
  L 327.42 493.31
  Q 327.43 494.04 326.69 494.01
  L 326.13 493.99
  Q 325.55 493.96 325.55 493.38
  L 325.57 487.36
  Q 325.57 486.78 325.10 486.44
  L 324.69 486.14
  A 0.50 0.50 0.0 0 1 324.70 485.32
  L 325.04 485.09
  A 1.28 1.26 -15.6 0 0 325.59 484.13
  Q 325.85 480.59 329.43 481.00
  Q 330.01 481.07 329.99 481.66
  Q 329.99 481.86 329.98 482.07
  A 0.46 0.45 -82.3 0 1 329.42 482.50
  Q 328.00 482.18 327.41 483.44
  A 0.99 0.99 0.0 0 0 328.02 484.82
  L 329.70 485.32
  A 0.53 0.53 0.0 0 1 329.56 486.36
  L 327.98 486.42
  A 0.60 0.59 89.0 0 0 327.41 487.02
  Z"
/>
<path fill="#536068" d="
  M 373.17 485.75
  C 375.30 484.98 377.27 484.17 378.55 486.33
  C 379.51 487.95 379.07 491.30 379.07 493.38
  Q 379.07 493.99 378.46 493.98
  L 378.06 493.97
  Q 377.40 493.96 377.41 493.30
  L 377.51 488.30
  A 1.88 1.87 -0.0 0 0 375.59 486.39
  C 371.78 486.48 372.40 491.03 372.70 493.47
  Q 372.77 494.06 372.18 494.01
  L 371.36 493.95
  A 0.61 0.60 -88.0 0 1 370.80 493.34
  L 370.84 481.71
  A 0.67 0.67 0.0 0 1 371.54 481.04
  L 372.16 481.07
  Q 372.72 481.10 372.69 481.66
  L 372.49 485.25
  Q 372.44 486.02 373.17 485.75
  Z"
/>
<rect fill="#536068" x="-0.89" y="-6.45" transform="translate(408.09,487.49) rotate(-0.2)" width="1.78" height="12.90" rx="0.42"/>
<path fill="#536068" d="
  M 484.68 485.63
  C 492.22 483.52 490.36 488.48 490.64 493.34
  Q 490.68 494.06 489.96 494.01
  L 489.35 493.97
  Q 488.78 493.93 488.79 493.35
  L 488.87 488.70
  A 2.19 2.19 0.0 0 0 486.30 486.50
  C 483.51 486.99 484.11 491.33 484.22 493.41
  Q 484.25 493.98 483.67 493.99
  L 483.07 493.99
  Q 482.38 494.00 482.38 493.32
  L 482.32 481.61
  A 0.58 0.58 0.0 0 1 482.89 481.03
  L 483.62 481.01
  Q 484.23 481.00 484.22 481.62
  L 484.16 485.23
  Q 484.15 485.78 484.68 485.63
  Z"
/>
<path fill="#536068" d="
  M 251.04 490.80
  L 251.24 493.35
  Q 251.29 494.00 250.64 493.98
  L 249.93 493.96
  Q 249.41 493.95 249.41 493.43
  L 249.35 482.68
  Q 249.35 482.18 249.84 482.08
  Q 253.48 481.36 256.92 482.65
  A 1.42 1.42 0.0 0 1 257.71 483.40
  C 260.27 489.21 256.08 490.32 251.58 490.22
  A 0.53 0.53 0.0 0 0 251.04 490.80
  Z
  M 251.10 484.18
  L 251.06 488.24
  A 0.73 0.73 0.0 0 0 251.79 488.97
  L 253.83 488.99
  A 2.69 2.39 0.5 0 0 256.54 486.62
  L 256.54 485.88
  A 2.69 2.39 0.5 0 0 253.87 483.47
  L 251.83 483.45
  A 0.73 0.73 0.0 0 0 251.10 484.18
  Z"
/>
<path fill="#536068" d="
  M 142.24 489.16
  C 142.47 494.07 148.10 493.28 148.16 489.51
  Q 148.22 486.03 148.11 482.56
  Q 148.09 482.08 148.57 482.04
  L 149.46 481.96
  Q 150.04 481.91 150.08 482.49
  Q 150.47 487.83 149.90 490.69
  C 149.13 494.58 143.21 495.16 141.20 492.24
  C 139.69 490.05 140.24 485.53 140.21 482.64
  Q 140.20 482.05 140.79 482.03
  L 141.70 481.98
  Q 142.21 481.95 142.20 482.47
  Q 142.09 485.83 142.24 489.16
  Z"
/>
<path fill="#536068" d="
  M 342.41 484.21
  Q 342.29 487.63 342.52 493.26
  Q 342.56 494.29 341.07 493.92
  Q 340.71 493.83 340.71 493.46
  L 340.73 484.24
  A 0.68 0.68 0.0 0 0 340.20 483.58
  Q 339.21 483.35 338.25 483.42
  Q 337.57 483.47 337.31 483.29
  Q 336.94 483.03 336.96 482.53
  A 0.59 0.59 0.0 0 1 337.55 481.96
  L 345.72 481.95
  A 0.72 0.72 0.0 0 1 345.76 483.38
  L 343.07 483.53
  Q 342.43 483.57 342.41 484.21
  Z"
/>
<ellipse fill="#536068" cx="0.00" cy="0.00" transform="translate(469.21,482.96) rotate(7.3)" rx="1.11" ry="1.03"/>
<path fill="#536068" d="
  M 503.36 492.01
  C 505.93 493.50 507.95 491.92 508.07 489.11
  Q 508.21 485.87 508.04 482.63
  Q 508.01 482.07 508.57 482.02
  L 509.44 481.94
  Q 509.99 481.89 510.05 482.44
  Q 510.67 487.81 509.77 491.26
  C 508.91 494.56 503.43 494.82 501.49 492.62
  C 499.61 490.48 500.19 485.65 500.16 482.68
  Q 500.16 482.04 500.78 482.00
  L 501.49 481.96
  A 0.66 0.66 0.0 0 1 502.19 482.61
  L 502.22 490.03
  A 2.29 2.28 -75.0 0 0 503.36 492.01
  Z"
/>
<rect fill="#536068" x="-0.82" y="-3.95" transform="translate(523.84,485.95) rotate(-0.1)" width="1.64" height="7.90" rx="0.68"/>
<path fill="#536068" d="
  M 214.47 484.97
  L 216.15 485.09
  A 0.59 0.59 0.0 0 1 216.18 486.27
  L 214.31 486.50
  A 0.42 0.41 87.0 0 0 213.94 486.92
  L 213.92 492.02
  A 0.49 0.49 0.0 0 0 214.59 492.48
  Q 215.42 492.16 216.33 492.46
  A 1.17 0.83 -22.2 0 1 215.25 494.17
  Q 212.18 493.69 212.26 491.48
  Q 212.34 489.34 212.21 487.18
  Q 212.19 486.73 211.78 486.53
  L 210.84 486.07
  A 0.40 0.40 0.0 0 1 210.96 485.32
  Q 212.37 485.12 212.23 483.74
  A 0.83 0.83 0.0 0 1 213.83 483.36
  Q 213.96 483.71 213.97 484.45
  Q 213.98 484.94 214.47 484.97
  Z"
/>
<path fill="#536068" d="
  M 474.72 484.18
  Q 474.65 483.66 474.86 483.25
  A 0.83 0.83 0.0 0 1 476.43 483.70
  Q 476.27 485.49 478.27 484.97
  A 0.59 0.58 -8.5 0 1 479.00 485.50
  Q 479.00 485.70 479.03 485.87
  Q 479.07 486.22 478.72 486.26
  L 476.92 486.47
  A 0.61 0.60 -3.6 0 0 476.38 487.08
  L 476.50 491.67
  A 0.57 0.56 -86.4 0 0 476.98 492.22
  L 478.80 492.49
  A 0.58 0.58 0.0 0 1 478.99 493.57
  Q 477.07 494.61 475.35 493.47
  Q 474.75 493.08 474.74 492.37
  L 474.66 487.26
  A 0.96 0.96 0.0 0 0 474.09 486.40
  L 473.55 486.15
  A 0.47 0.47 0.0 0 1 473.53 485.30
  L 474.34 484.88
  Q 474.78 484.66 474.72 484.18
  Z"
/>
<path fill="#ffffff" d="
  M 251.10 484.18
  A 0.73 0.73 0.0 0 1 251.83 483.45
  L 253.87 483.47
  A 2.69 2.39 0.5 0 1 256.54 485.88
  L 256.54 486.62
  A 2.69 2.39 0.5 0 1 253.83 488.99
  L 251.79 488.97
  A 0.73 0.73 0.0 0 1 251.06 488.24
  L 251.10 484.18
  Z"
/>
<path fill="#536068" d="
  M 157.33 485.27
  C 163.41 482.73 162.75 490.40 162.68 493.45
  Q 162.67 493.99 162.13 493.99
  L 161.33 493.99
  Q 160.78 494.00 160.79 493.45
  C 160.81 491.52 161.70 485.75 158.01 486.53
  A 2.27 2.27 0.0 0 0 156.21 488.74
  L 156.20 493.53
  Q 156.20 494.01 155.72 494.01
  L 155.03 493.99
  Q 154.33 493.98 154.33 493.28
  L 154.36 485.36
  A 0.54 0.54 0.0 0 1 155.07 484.86
  L 156.39 485.31
  Q 156.87 485.47 157.33 485.27
  Z"
/>
<path fill="#536068" d="
  M 181.12 489.49
  A 4.61 4.61 0.0 0 1 176.51 494.10
  A 4.61 4.61 0.0 0 1 171.90 489.49
  A 4.61 4.61 0.0 0 1 176.51 484.88
  A 4.61 4.61 0.0 0 1 181.12 489.49
  Z
  M 176.4161 492.5593
  A 3.05 2.74 91.2 0 0 179.2194 489.5674
  A 3.05 2.74 91.2 0 0 176.5439 486.4607
  A 3.05 2.74 91.2 0 0 173.7406 489.4526
  A 3.05 2.74 91.2 0 0 176.4161 492.5593
  Z"
/>
<path fill="#536068" d="
  M 186.85 486.81
  C 183.54 488.44 185.47 494.45 190.40 491.71
  A 0.69 0.69 0.0 0 1 191.20 492.83
  C 188.97 494.83 185.53 494.53 184.07 491.80
  C 181.53 487.07 186.96 482.75 191.13 486.02
  A 0.70 0.69 72.9 0 1 190.49 487.23
  C 189.30 486.85 188.07 486.20 186.85 486.81
  Z"
/>
<path fill="#536068" d="
  M 233.33 490.73
  C 233.77 493.22 237.21 492.58 238.77 491.79
  A 0.47 0.47 0.0 0 1 239.32 492.54
  C 236.99 494.98 233.45 494.51 231.99 491.45
  C 229.18 485.54 238.75 481.46 240.05 488.91
  A 1.07 1.07 0.0 0 1 239.00 490.16
  L 233.75 490.22
  Q 233.24 490.23 233.33 490.73
  Z
  M 233.50 489.00
  L 238.32 488.96
  A 0.16 0.16 0.0 0 0 238.48 488.80
  L 238.48 488.71
  A 2.45 2.25 -0.5 0 0 236.01 486.48
  L 235.77 486.48
  A 2.45 2.25 -0.5 0 0 233.34 488.75
  L 233.34 488.84
  A 0.16 0.16 0.0 0 0 233.50 489.00
  Z"
/>
<path fill="#536068" d="
  M 269.91 489.50
  A 4.59 4.59 0.0 0 1 265.32 494.09
  A 4.59 4.59 0.0 0 1 260.73 489.50
  A 4.59 4.59 0.0 0 1 265.32 484.91
  A 4.59 4.59 0.0 0 1 269.91 489.50
  Z
  M 265.3080 492.5598
  A 3.06 2.74 90.6 0 0 268.0798 489.5287
  A 3.06 2.74 90.6 0 0 265.3720 486.4402
  A 3.06 2.74 90.6 0 0 262.6002 489.4713
  A 3.06 2.74 90.6 0 0 265.3080 492.5598
  Z"
/>
<path fill="#536068" d="
  M 282.66 491.21
  L 284.33 485.54
  Q 284.48 485.03 285.01 485.03
  L 285.48 485.02
  A 0.54 0.53 9.1 0 1 285.99 485.72
  L 283.43 493.26
  A 1.24 1.24 0.0 0 1 281.08 493.23
  L 279.43 488.01
  A 0.34 0.34 0.0 0 0 278.79 488.01
  L 277.14 493.37
  A 1.22 1.22 0.0 0 1 274.82 493.40
  L 272.22 485.71
  Q 271.95 484.90 272.79 485.00
  L 273.31 485.05
  Q 273.83 485.11 273.98 485.61
  L 275.62 491.09
  A 0.43 0.43 0.0 0 0 276.44 491.09
  L 277.93 485.84
  A 1.24 1.23 44.4 0 1 280.30 485.82
  L 281.96 491.22
  Q 282.31 492.37 282.66 491.21
  Z"
/>
<path fill="#536068" d="
  M 289.83 490.77
  Q 290.26 491.84 291.31 492.35
  C 292.56 492.97 293.44 492.16 294.25 492.17
  Q 297.44 492.18 294.55 493.53
  C 288.97 496.12 285.58 488.58 290.09 485.67
  C 293.00 483.79 297.30 486.03 296.32 489.63
  Q 296.18 490.14 295.66 490.14
  L 290.22 490.17
  Q 289.58 490.18 289.83 490.77
  Z
  M 289.94 489.01
  L 294.86 488.97
  A 0.16 0.16 0.0 0 0 295.02 488.81
  L 295.02 488.71
  A 2.47 2.30 -0.4 0 0 292.53 486.43
  L 292.23 486.43
  A 2.47 2.30 -0.4 0 0 289.78 488.75
  L 289.78 488.85
  A 0.16 0.16 0.0 0 0 289.94 489.01
  Z"
/>
<path fill="#536068" d="
  M 302.66 485.56
  L 304.34 484.97
  A 0.46 0.45 79.7 0 1 304.95 485.40
  Q 304.95 485.59 304.97 485.77
  Q 305.00 486.03 304.77 486.14
  L 302.58 487.24
  A 1.10 1.09 -14.0 0 0 301.99 488.21
  L 301.98 493.36
  Q 301.98 493.95 301.39 493.97
  L 300.88 493.98
  Q 300.26 493.99 300.26 493.38
  L 300.24 485.54
  Q 300.24 485.11 300.67 485.02
  Q 301.42 484.86 301.88 485.37
  Q 302.21 485.72 302.66 485.56
  Z"
/>
<path fill="#536068" d="
  M 321.88 489.50
  A 4.55 4.55 0.0 0 1 317.33 494.05
  A 4.55 4.55 0.0 0 1 312.78 489.50
  A 4.55 4.55 0.0 0 1 317.33 484.95
  A 4.55 4.55 0.0 0 1 321.88 489.50
  Z
  M 317.3893 492.5994
  A 3.09 2.81 88.9 0 0 320.1395 489.4561
  A 3.09 2.81 88.9 0 0 317.2707 486.4206
  A 3.09 2.81 88.9 0 0 314.5205 489.5639
  A 3.09 2.81 88.9 0 0 317.3893 492.5994
  Z"
/>
<path fill="#536068" d="
  M 350.15 490.77
  C 351.31 493.57 353.86 492.15 355.90 491.99
  A 0.44 0.44 0.0 0 1 356.17 492.79
  C 352.27 495.38 347.99 493.60 348.38 488.96
  C 348.86 483.21 357.70 483.78 356.70 489.56
  Q 356.60 490.12 356.04 490.12
  L 350.53 490.19
  Q 349.92 490.20 350.15 490.77
  Z
  M 350.34 489.01
  L 355.04 489.01
  A 0.22 0.22 0.0 0 0 355.26 488.79
  L 355.26 488.70
  A 2.39 2.29 -0.1 0 0 352.87 486.41
  L 352.51 486.41
  A 2.39 2.29 -0.1 0 0 350.12 488.70
  L 350.12 488.79
  A 0.22 0.22 0.0 0 0 350.34 489.01
  Z"
/>
<path fill="#536068" d="
  M 362.37 486.77
  C 359.23 489.54 362.29 494.50 366.14 491.70
  A 0.73 0.73 0.0 0 1 367.08 492.81
  C 365.56 494.32 362.83 494.52 361.12 493.19
  C 356.60 489.68 360.90 482.18 366.94 485.96
  A 0.58 0.58 0.0 0 1 366.55 487.02
  L 363.16 486.53
  A 1.00 0.99 28.1 0 0 362.37 486.77
  Z"
/>
<path fill="#536068" d="
  M 385.86 485.50
  C 391.75 482.54 391.89 490.13 391.46 493.25
  Q 391.31 494.33 390.18 493.95
  Q 389.74 493.80 389.74 493.33
  L 389.73 488.34
  A 1.86 1.85 7.7 0 0 388.38 486.57
  C 384.02 485.35 384.94 491.19 385.00 493.41
  Q 385.02 493.95 384.48 493.96
  L 383.75 493.97
  Q 383.27 493.98 383.27 493.50
  L 383.23 485.63
  A 0.65 0.65 0.0 0 1 384.16 485.04
  L 385.11 485.50
  Q 385.49 485.68 385.86 485.50
  Z"
/>
<path fill="#536068" d="
  M 403.60 489.48
  A 4.57 4.57 0.0 0 1 399.03 494.05
  A 4.57 4.57 0.0 0 1 394.46 489.48
  A 4.57 4.57 0.0 0 1 399.03 484.91
  A 4.57 4.57 0.0 0 1 403.60 489.48
  Z
  M 401.6523 489.0666
  A 2.46 2.46 0.0 0 0 399.3020 486.5016
  L 398.9024 486.4842
  A 2.46 2.46 0.0 0 0 396.3374 488.8345
  L 396.2877 489.9734
  A 2.46 2.46 0.0 0 0 398.6380 492.5384
  L 399.0376 492.5558
  A 2.46 2.46 0.0 0 0 401.6026 490.2055
  L 401.6523 489.0666
  Z"
/>
<path fill="#536068" d="
  M 421.43 489.49
  A 4.58 4.58 0.0 0 1 416.85 494.07
  A 4.58 4.58 0.0 0 1 412.27 489.49
  A 4.58 4.58 0.0 0 1 416.85 484.91
  A 4.58 4.58 0.0 0 1 421.43 489.49
  Z
  M 416.7385 492.5683
  A 3.06 2.77 91.9 0 0 419.6085 489.6018
  A 3.06 2.77 91.9 0 0 416.9415 486.4517
  A 3.06 2.77 91.9 0 0 414.0715 489.4182
  A 3.06 2.77 91.9 0 0 416.7385 492.5683
  Z"
/>
<path fill="#536068" d="
  M 430.41 493.35
  C 421.78 497.79 422.39 481.45 429.86 485.47
  Q 430.25 485.68 430.64 485.50
  L 431.82 484.96
  Q 432.54 484.64 432.55 485.43
  C 432.58 488.31 433.39 494.19 431.10 496.09
  C 429.84 497.13 425.74 497.75 424.74 495.57
  A 0.38 0.38 0.0 0 1 425.17 495.04
  C 427.36 495.51 430.15 496.23 430.90 493.75
  Q 431.13 492.98 430.41 493.35
  Z
  M 428.2250 492.5791
  A 3.07 2.66 91.4 0 0 430.9592 489.5750
  A 3.07 2.66 91.4 0 0 428.3750 486.4409
  A 3.07 2.66 91.4 0 0 425.6408 489.4450
  A 3.07 2.66 91.4 0 0 428.2250 492.5791
  Z"
/>
<path fill="#536068" d="
  M 440.14 490.98
  L 441.96 485.57
  Q 442.12 485.11 442.61 485.07
  L 443.23 485.02
  Q 443.99 484.96 443.71 485.68
  Q 441.94 490.14 440.19 494.57
  C 439.37 496.63 438.07 497.62 435.85 496.80
  A 0.44 0.43 -74.1 0 1 435.58 496.31
  L 435.73 495.59
  A 0.50 0.50 0.0 0 1 436.34 495.21
  Q 438.19 495.66 438.79 494.03
  Q 438.94 493.62 438.77 493.22
  L 435.63 485.78
  Q 435.43 485.28 435.92 485.07
  Q 437.11 484.57 437.50 485.73
  Q 438.60 489.02 439.51 491.01
  Q 439.86 491.79 440.14 490.98
  Z"
/>
<path fill="#536068" d="
  M 461.80 491.28
  Q 463.20 488.27 463.39 486.40
  Q 463.53 485.03 464.85 484.98
  A 0.56 0.55 -81.3 0 1 465.39 485.72
  L 462.65 493.49
  A 1.14 1.14 0.0 0 1 460.49 493.45
  L 458.86 488.24
  Q 458.51 487.14 458.14 488.23
  L 456.51 493.05
  A 1.26 1.26 0.0 0 1 454.12 493.06
  L 451.54 485.70
  Q 451.29 485.00 452.03 485.01
  L 452.55 485.02
  Q 453.10 485.02 453.26 485.55
  L 454.98 491.22
  A 0.35 0.35 0.0 0 0 455.64 491.22
  L 457.38 485.56
  A 1.14 1.14 0.0 0 1 459.56 485.56
  L 461.31 491.25
  Q 461.51 491.90 461.80 491.28
  Z"
/>
<rect fill="#536068" x="-0.90" y="-4.46" transform="translate(469.28,489.52) rotate(0.3)" width="1.80" height="8.92" rx="0.49"/>
<path fill="#536068" d="
  M 517.99 490.72
  L 514.62 489.36
  A 1.27 1.24 1.3 0 1 513.92 488.64
  C 512.63 485.23 516.46 484.18 518.75 485.16
  Q 519.81 485.61 519.36 486.84
  A 0.44 0.43 27.3 0 1 518.70 487.05
  Q 517.14 485.95 515.51 486.90
  A 0.59 0.59 0.0 0 0 515.57 487.95
  L 519.00 489.48
  Q 519.33 489.62 519.53 489.93
  C 520.88 492.03 519.61 493.78 517.36 493.99
  Q 515.74 494.14 513.84 493.42
  A 0.77 0.77 0.0 0 1 514.30 491.95
  L 516.74 492.56
  A 1.26 0.95 -19.0 0 0 517.99 490.72
  Z"
/>
<path fill="#ffffff" d="
  M 289.94 489.01
  A 0.16 0.16 0.0 0 1 289.78 488.85
  L 289.78 488.75
  A 2.47 2.30 -0.4 0 1 292.23 486.43
  L 292.53 486.43
  A 2.47 2.30 -0.4 0 1 295.02 488.71
  L 295.02 488.81
  A 0.16 0.16 0.0 0 1 294.86 488.97
  L 289.94 489.01
  Z"
/>
<ellipse fill="#ffffff" cx="0.00" cy="0.00" transform="translate(176.48,489.51) rotate(91.2)" rx="3.05" ry="2.74"/>
<path fill="#ffffff" d="
  M 233.50 489.00
  A 0.16 0.16 0.0 0 1 233.34 488.84
  L 233.34 488.75
  A 2.45 2.25 -0.5 0 1 235.77 486.48
  L 236.01 486.48
  A 2.45 2.25 -0.5 0 1 238.48 488.71
  L 238.48 488.80
  A 0.16 0.16 0.0 0 1 238.32 488.96
  L 233.50 489.00
  Z"
/>
<ellipse fill="#ffffff" cx="0.00" cy="0.00" transform="translate(265.34,489.50) rotate(90.6)" rx="3.06" ry="2.74"/>
<ellipse fill="#ffffff" cx="0.00" cy="0.00" transform="translate(317.33,489.51) rotate(88.9)" rx="3.09" ry="2.81"/>
<path fill="#ffffff" d="
  M 350.34 489.01
  A 0.22 0.22 0.0 0 1 350.12 488.79
  L 350.12 488.70
  A 2.39 2.29 -0.1 0 1 352.51 486.41
  L 352.87 486.41
  A 2.39 2.29 -0.1 0 1 355.26 488.70
  L 355.26 488.79
  A 0.22 0.22 0.0 0 1 355.04 489.01
  L 350.34 489.01
  Z"
/>
<rect fill="#ffffff" x="-2.66" y="-3.03" transform="translate(398.97,489.52) rotate(2.5)" width="5.32" height="6.06" rx="2.46"/>
<ellipse fill="#ffffff" cx="0.00" cy="0.00" transform="translate(416.84,489.51) rotate(91.9)" rx="3.06" ry="2.77"/>
<ellipse fill="#ffffff" cx="0.00" cy="0.00" transform="translate(428.30,489.51) rotate(91.4)" rx="3.07" ry="2.66"/>
<path fill="#536068" d="
  M 524.74 493.25
  A 0.45 0.45 0.0 0 1 524.38 493.99
  L 523.40 493.93
  A 0.58 0.58 0.0 0 1 523.30 492.79
  Q 524.15 492.58 524.74 493.25
  Z"
/>
</svg>
